M48
; DRILL file {KiCad 8.0.4} date 2024-09-01T11:28:27+0900
; FORMAT={-:-/ absolute / inch / decimal}
; #@! TF.CreationDate,2024-09-01T11:28:27+09:00
; #@! TF.GenerationSoftware,Kicad,Pcbnew,8.0.4
; #@! TF.FileFunction,Plated,1,2,PTH
FMAT,2
INCH
; #@! TA.AperFunction,Plated,PTH,ViaDrill
T1C0.0157
; #@! TA.AperFunction,Plated,PTH,ComponentDrill
T2C0.0315
%
G90
G05
T1
X1.1811Y-5.5118
X1.2205Y-4.1535
X1.2598Y-4.1929
X1.5945Y-4.3504
X2.5Y-4.311
X2.5197Y-4.8228
X2.7756Y-3.9567
X3.0906Y-5.4724
X5.0197Y-3.9173
X5.6102Y-5.6496
X6.6142Y-5.689
X7.4213Y-5.748
X7.9331Y-5.5906
X8.7008Y-5.4528
X8.8189Y-5.2362
T2
G00X1.3307Y-0.7559
M15
G01X1.3465Y-0.7559
M16
G05
G00X1.3898Y-2.2126
M15
G01X1.4055Y-2.2126
M16
G05
G00X1.5276Y-0.8425
M15
G01X1.5433Y-0.8425
M16
G05
G00X1.5866Y-2.2992
M15
G01X1.6024Y-2.2992
M16
G05
G00X1.7244Y-0.3937
M15
G01X1.7402Y-0.3937
M16
G05
G00X1.7835Y-1.8504
M15
G01X1.7992Y-1.8504
M16
G05
G00X2.0984Y-0.7559
M15
G01X2.1142Y-0.7559
M16
G05
G00X2.2953Y-0.8425
M15
G01X2.311Y-0.8425
M16
G05
G00X2.4921Y-0.3937
M15
G01X2.5079Y-0.3937
M16
G05
G00X2.5709Y-2.2126
M15
G01X2.5866Y-2.2126
M16
G05
G00X2.7677Y-2.2992
M15
G01X2.7835Y-2.2992
M16
G05
G00X2.8661Y-0.7559
M15
G01X2.8819Y-0.7559
M16
G05
G00X2.9646Y-1.8504
M15
G01X2.9803Y-1.8504
M16
G05
G00X3.063Y-0.8425
M15
G01X3.0787Y-0.8425
M16
G05
G00X3.0827Y-4.6339
M15
G01X3.0984Y-4.6339
M16
G05
G00X3.2598Y-0.3937
M15
G01X3.2756Y-0.3937
M16
G05
G00X3.2795Y-4.7205
M15
G01X3.2953Y-4.7205
M16
G05
G00X3.4764Y-4.2717
M15
G01X3.4921Y-4.2717
M16
G05
G00X3.5945Y-2.8031
M15
G01X3.6102Y-2.8031
M16
G05
G00X3.7913Y-2.8898
M15
G01X3.8071Y-2.8898
M16
G05
G00X3.9882Y-2.4409
M15
G01X4.0039Y-2.4409
M16
G05
G00X4.185Y-4.8307
M15
G01X4.2008Y-4.8307
M16
G05
G00X4.3819Y-4.9173
M15
G01X4.3976Y-4.9173
M16
G05
G00X4.5787Y-4.4685
M15
G01X4.5945Y-4.4685
M16
G05
G00X5.6024Y-4.811
M15
G01X5.6181Y-4.811
M16
G05
G00X5.7598Y-3.4724
M15
G01X5.7756Y-3.4724
M16
G05
G00X5.7992Y-4.8976
M15
G01X5.815Y-4.8976
M16
G05
G00X5.9173Y-2.3307
M15
G01X5.9331Y-2.3307
M16
G05
G00X5.9567Y-3.5591
M15
G01X5.9724Y-3.5591
M16
G05
G00X5.9961Y-4.4488
M15
G01X6.0118Y-4.4488
M16
G05
G00X6.0551Y-1.1693
M15
G01X6.0709Y-1.1693
M16
G05
G00X6.1142Y-2.4173
M15
G01X6.1299Y-2.4173
M16
G05
G00X6.1535Y-3.1102
M15
G01X6.1693Y-3.1102
M16
G05
G00X6.252Y-1.2559
M15
G01X6.2677Y-1.2559
M16
G05
G00X6.311Y-1.9685
M15
G01X6.3268Y-1.9685
M16
G05
G00X6.4488Y-0.8071
M15
G01X6.4646Y-0.8071
M16
G05
G00X6.6063Y-4.6339
M15
G01X6.622Y-4.6339
M16
G05
G00X6.8031Y-4.7205
M15
G01X6.8189Y-4.7205
M16
G05
G00X6.8228Y-3.0
M15
G01X6.8386Y-3.0
M16
G05
G00X6.9409Y-1.8583
M15
G01X6.9567Y-1.8583
M16
G05
G00X7.0Y-4.2717
M15
G01X7.0157Y-4.2717
M16
G05
G00X7.0197Y-3.0866
M15
G01X7.0354Y-3.0866
M16
G05
G00X7.1378Y-1.9449
M15
G01X7.1535Y-1.9449
M16
G05
G00X7.2165Y-2.6378
M15
G01X7.2323Y-2.6378
M16
G05
G00X7.3346Y-1.4961
M15
G01X7.3504Y-1.4961
M16
G05
G00X7.9252Y-3.0394
M15
G01X7.9409Y-3.0394
M16
G05
G00X8.0437Y-1.8976
M15
G01X8.0594Y-1.8976
M16
G05
G00X8.122Y-3.126
M15
G01X8.1378Y-3.126
M16
G05
G00X8.2406Y-1.9843
M15
G01X8.2563Y-1.9843
M16
G05
G00X8.3189Y-2.6772
M15
G01X8.3346Y-2.6772
M16
G05
G00X8.4374Y-1.5354
M15
G01X8.4531Y-1.5354
M16
G05
G00X9.1063Y-2.0945
M15
G01X9.122Y-2.0945
M16
G05
G00X9.3031Y-2.1811
M15
G01X9.3189Y-2.1811
M16
G05
G00X9.5Y-1.7323
M15
G01X9.5157Y-1.7323
M16
G05
M30
