%TF.GenerationSoftware,KiCad,Pcbnew,8.0.4*%
%TF.CreationDate,2024-09-01T11:28:24+09:00*%
%TF.ProjectId,nzx,6e7a782e-6b69-4636-9164-5f7063625858,rev?*%
%TF.SameCoordinates,Original*%
%TF.FileFunction,Copper,L2,Bot*%
%TF.FilePolarity,Positive*%
%FSLAX46Y46*%
G04 Gerber Fmt 4.6, Leading zero omitted, Abs format (unit mm)*
G04 Created by KiCad (PCBNEW 8.0.4) date 2024-09-01 11:28:24*
%MOMM*%
%LPD*%
G01*
G04 APERTURE LIST*
%TA.AperFunction,ComponentPad*%
%ADD10O,1.600000X1.200000*%
%TD*%
%TA.AperFunction,ViaPad*%
%ADD11C,0.800000*%
%TD*%
%TA.AperFunction,Conductor*%
%ADD12C,0.250000*%
%TD*%
G04 APERTURE END LIST*
D10*
%TO.P,R2(RB)1,MP*%
%TO.N,N/C*%
X241500000Y-44000000D03*
%TO.P,R2(RB)1,2,2*%
%TO.N,Net-(RZ1-GP8)*%
X236500000Y-55400000D03*
%TO.P,R2(RB)1,1,1*%
%TO.N,Net-(RZ1-GND)*%
X231500000Y-53200000D03*
%TD*%
%TO.P,L2(LB)1,1,1*%
%TO.N,Net-(RZ1-GND)*%
X204510000Y-48200000D03*
%TO.P,L2(LB)1,2,2*%
%TO.N,Net-(RZ1-GP9)*%
X209510000Y-50400000D03*
%TO.P,L2(LB)1,MP*%
%TO.N,N/C*%
X214510000Y-39000000D03*
%TD*%
%TO.P,B4(Y)1,1,1*%
%TO.N,Net-(RZ1-GP11)*%
X176500000Y-47200000D03*
%TO.P,B4(Y)1,2,2*%
%TO.N,Net-(RZ1-GND)*%
X181500000Y-49400000D03*
%TO.P,B4(Y)1,MP*%
%TO.N,N/C*%
X186500000Y-38000000D03*
%TD*%
%TO.P,R1(R)1,1,1*%
%TO.N,Net-(RZ1-GP12)*%
X154000000Y-29700000D03*
%TO.P,R1(R)1,2,2*%
%TO.N,Net-(RZ1-GND)*%
X159000000Y-31900000D03*
%TO.P,R1(R)1,MP*%
%TO.N,N/C*%
X164000000Y-20500000D03*
%TD*%
%TO.P,B3(X)1,1,1*%
%TO.N,Net-(RZ1-GP10)*%
X150500000Y-59200000D03*
%TO.P,B3(X)1,2,2*%
%TO.N,Net-(RZ1-GND)*%
X155500000Y-61400000D03*
%TO.P,B3(X)1,MP*%
%TO.N,N/C*%
X160500000Y-50000000D03*
%TD*%
%TO.P,L1(L)1,1,1*%
%TO.N,Net-(RZ1-GP13)*%
X201500000Y-77200000D03*
%TO.P,L1(L)1,2,2*%
%TO.N,Net-(RZ1-GND)*%
X206500000Y-79400000D03*
%TO.P,L1(L)1,MP*%
%TO.N,N/C*%
X211500000Y-68000000D03*
%TD*%
%TO.P,B2(B)1,1,1*%
%TO.N,Net-(RZ1-GND)*%
X173500000Y-76200000D03*
%TO.P,B2(B)1,2,2*%
%TO.N,Net-(RZ1-GP7)*%
X178500000Y-78400000D03*
%TO.P,B2(B)1,MP*%
%TO.N,N/C*%
X183500000Y-67000000D03*
%TD*%
%TO.P,B1(A)1,MP*%
%TO.N,N/C*%
X156500000Y-79000000D03*
%TO.P,B1(A)1,2,2*%
%TO.N,Net-(RZ1-GP6)*%
X151500000Y-90400000D03*
%TO.P,B1(A)1,1,1*%
%TO.N,Net-(RZ1-GND)*%
X146500000Y-88200000D03*
%TD*%
%TO.P,R3(RS)1,MP*%
%TO.N,N/C*%
X178000000Y-108500000D03*
%TO.P,R3(RS)1,2,2*%
%TO.N,Net-(RZ1-GND)*%
X173000000Y-119900000D03*
%TO.P,R3(RS)1,1,1*%
%TO.N,Net-(RZ1-GP27)*%
X168000000Y-117700000D03*
%TD*%
%TO.P,LEFT1,1,1*%
%TO.N,Net-(RZ1-GND)*%
X35500000Y-56200000D03*
%TO.P,LEFT1,2,2*%
%TO.N,Net-(RZ1-GP5)*%
X40500000Y-58400000D03*
%TO.P,LEFT1,MP*%
%TO.N,N/C*%
X45500000Y-47000000D03*
%TD*%
%TO.P,DOWN1,MP*%
%TO.N,N/C*%
X75500000Y-47000000D03*
%TO.P,DOWN1,2,2*%
%TO.N,Net-(RZ1-GP3)*%
X70500000Y-58400000D03*
%TO.P,DOWN1,1,1*%
%TO.N,Net-(RZ1-GND)*%
X65500000Y-56200000D03*
%TD*%
%TO.P,A1(GUIDE)1,MP*%
%TO.N,N/C*%
X88500000Y-108500000D03*
%TO.P,A1(GUIDE)1,2,2*%
%TO.N,Net-(RZ1-GND)*%
X83500000Y-119900000D03*
%TO.P,A1(GUIDE)1,1,1*%
%TO.N,Net-(RZ1-GP14)*%
X78500000Y-117700000D03*
%TD*%
%TO.P,RIGHT1,1,1*%
%TO.N,Net-(RZ1-GND)*%
X91500000Y-71200000D03*
%TO.P,RIGHT1,2,2*%
%TO.N,Net-(RZ1-GP4)*%
X96500000Y-73400000D03*
%TO.P,RIGHT1,MP*%
%TO.N,N/C*%
X101500000Y-62000000D03*
%TD*%
%TO.P,UP1,1,1*%
%TO.N,Net-(RZ1-GND)*%
X106500000Y-122700000D03*
%TO.P,UP1,2,2*%
%TO.N,Net-(RZ1-GP2)*%
X111500000Y-124900000D03*
%TO.P,UP1,MP*%
%TO.N,N/C*%
X116500000Y-113500000D03*
%TD*%
%TO.P,S2(START)1,1,1*%
%TO.N,Net-(RZ1-GND)*%
X73000000Y-19200000D03*
%TO.P,S2(START)1,2,2*%
%TO.N,Net-(RZ1-GP1)*%
X78000000Y-21400000D03*
%TO.P,S2(START)1,MP*%
%TO.N,N/C*%
X83000000Y-10000000D03*
%TD*%
%TO.P,S1(BACK)1,1,1*%
%TO.N,Net-(RZ1-GND)*%
X53500000Y-19200000D03*
%TO.P,S1(BACK)1,2,2*%
%TO.N,Net-(RZ1-GP0)*%
X58500000Y-21400000D03*
%TO.P,S1(BACK)1,MP*%
%TO.N,N/C*%
X63500000Y-10000000D03*
%TD*%
%TO.P,A2(CAPTURE)1,1,1*%
%TO.N,Net-(RZ1-GP15)*%
X34000000Y-19200000D03*
%TO.P,A2(CAPTURE)1,2,2*%
%TO.N,Net-(RZ1-GND)*%
X39000000Y-21400000D03*
%TO.P,A2(CAPTURE)1,MP*%
%TO.N,N/C*%
X44000000Y-10000000D03*
%TD*%
%TO.P,L3(LS)1,MP*%
%TO.N,N/C*%
X152500000Y-113000000D03*
%TO.P,L3(LS)1,2,2*%
%TO.N,Net-(RZ1-GND)*%
X147500000Y-124400000D03*
%TO.P,L3(LS)1,1,1*%
%TO.N,Net-(RZ1-GP26)*%
X142500000Y-122200000D03*
%TD*%
D11*
%TO.N,Net-(RZ1-GND)*%
X188500000Y-146000000D03*
%TO.N,Net-(RZ1-GP4)*%
X63500000Y-109500000D03*
%TO.N,Net-(RZ1-GP10)*%
X64000000Y-122500000D03*
%TO.N,Net-(RZ1-GP3)*%
X70500000Y-100500000D03*
%TO.N,Net-(RZ1-GP9)*%
X224000000Y-133000000D03*
%TO.N,Net-(RZ1-GP11)*%
X221000000Y-138500000D03*
%TO.N,Net-(RZ1-GP27)*%
X168000000Y-144500000D03*
%TO.N,Net-(RZ1-GP14)*%
X78500000Y-139000000D03*
%TO.N,Net-(RZ1-GP26)*%
X142500000Y-143500000D03*
%TO.N,Net-(RZ1-GP13)*%
X201500000Y-142000000D03*
%TO.N,Net-(RZ1-GP2)*%
X127500000Y-99500000D03*
%TO.N,Net-(RZ1-GP5)*%
X40500000Y-110500000D03*
%TO.N,Net-(RZ1-GP1)*%
X32000000Y-106500000D03*
%TO.N,Net-(RZ1-GP0)*%
X31000000Y-105500000D03*
%TO.N,Net-(RZ1-GP15)*%
X30000000Y-140000000D03*
%TD*%
D12*
%TO.N,Net-(RZ1-GND)*%
X206500000Y-79400000D02*
X206500000Y-85500000D01*
X208000000Y-87000000D02*
X211500000Y-87000000D01*
X211500000Y-87000000D02*
X218500000Y-80000000D01*
X218500000Y-80000000D02*
X218500000Y-68000000D01*
X206500000Y-85500000D02*
X208000000Y-87000000D01*
X218500000Y-68000000D02*
X210500000Y-60000000D01*
X210500000Y-60000000D02*
X187000000Y-60000000D01*
X35500000Y-56200000D02*
X28700000Y-56200000D01*
X35500000Y-39000000D02*
X65500000Y-39000000D01*
X28700000Y-56200000D02*
X26500000Y-54000000D01*
X26500000Y-48000000D02*
X35500000Y-39000000D01*
X26500000Y-54000000D02*
X26500000Y-48000000D01*
X65500000Y-39000000D02*
X57000000Y-47500000D01*
X57000000Y-47500000D02*
X57000000Y-54000000D01*
X59200000Y-56200000D02*
X65500000Y-56200000D01*
X57000000Y-54000000D02*
X59200000Y-56200000D01*
X169500000Y-51500000D02*
X159500000Y-41500000D01*
X181500000Y-49400000D02*
X181500000Y-55500000D01*
X181500000Y-55500000D02*
X183000000Y-57000000D01*
X183000000Y-57000000D02*
X186000000Y-57000000D01*
X186000000Y-57000000D02*
X194500000Y-48500000D01*
X194500000Y-48500000D02*
X194500000Y-38500000D01*
X194500000Y-38500000D02*
X185000000Y-29000000D01*
X155500000Y-61400000D02*
X155500000Y-68000000D01*
X161000000Y-69500000D02*
X169500000Y-61000000D01*
X155500000Y-68000000D02*
X157000000Y-69500000D01*
X157000000Y-69500000D02*
X161000000Y-69500000D01*
X169500000Y-61000000D02*
X169500000Y-51500000D01*
%TO.N,Net-(RZ1-GP9)*%
X224000000Y-133000000D02*
X224000000Y-70500000D01*
X209510000Y-56010000D02*
X209510000Y-50400000D01*
X224000000Y-70500000D02*
X209510000Y-56010000D01*
%TO.N,Net-(RZ1-GP11)*%
X221000000Y-138500000D02*
X221000000Y-69000000D01*
X221000000Y-69000000D02*
X211000000Y-59000000D01*
X211000000Y-59000000D02*
X180000000Y-59000000D01*
X180000000Y-59000000D02*
X176500000Y-55500000D01*
X176500000Y-55500000D02*
X176500000Y-47200000D01*
%TO.N,Net-(RZ1-GND)*%
X178000000Y-60000000D02*
X169500000Y-51500000D01*
%TO.N,Net-(RZ1-GP10)*%
X64000000Y-122500000D02*
X69500000Y-117000000D01*
X136500000Y-80500000D02*
X150500000Y-66500000D01*
X69500000Y-117000000D02*
X69500000Y-109500000D01*
X98500000Y-80500000D02*
X136500000Y-80500000D01*
X69500000Y-109500000D02*
X98500000Y-80500000D01*
X150500000Y-66500000D02*
X150500000Y-59200000D01*
%TO.N,Net-(RZ1-GP4)*%
X63500000Y-109500000D02*
X67250000Y-109500000D01*
X67250000Y-109500000D02*
X96500000Y-80250000D01*
X96500000Y-80250000D02*
X96500000Y-73400000D01*
%TO.N,Net-(RZ1-GND)*%
X96000000Y-26000000D02*
X96000000Y-13000000D01*
X96000000Y-13000000D02*
X88000000Y-5000000D01*
X88000000Y-5000000D02*
X72000000Y-5000000D01*
%TO.N,Net-(RZ1-GP1)*%
X32000000Y-106500000D02*
X32000000Y-85000000D01*
X32000000Y-85000000D02*
X22000000Y-75000000D01*
X22000000Y-75000000D02*
X22000000Y-34000000D01*
X22000000Y-34000000D02*
X25000000Y-31000000D01*
X25000000Y-31000000D02*
X68400000Y-31000000D01*
X68400000Y-31000000D02*
X78000000Y-21400000D01*
%TO.N,Net-(RZ1-GP0)*%
X31000000Y-85500000D02*
X21000000Y-75500000D01*
X21000000Y-75500000D02*
X21000000Y-33500000D01*
X25000000Y-29500000D02*
X50400000Y-29500000D01*
X31000000Y-105500000D02*
X31000000Y-85500000D01*
X21000000Y-33500000D02*
X25000000Y-29500000D01*
X50400000Y-29500000D02*
X58500000Y-21400000D01*
%TO.N,Net-(RZ1-GND)*%
X96000000Y-31500000D02*
X96000000Y-26000000D01*
X156000000Y-41500000D02*
X111500000Y-41500000D01*
X111500000Y-41500000D02*
X96000000Y-26000000D01*
X88500000Y-39000000D02*
X96000000Y-31500000D01*
X147500000Y-124400000D02*
X147500000Y-131500000D01*
X147500000Y-131500000D02*
X150000000Y-134000000D01*
X150000000Y-134000000D02*
X156000000Y-134000000D01*
X156000000Y-134000000D02*
X159500000Y-130500000D01*
X159500000Y-130500000D02*
X159500000Y-111000000D01*
X159500000Y-111000000D02*
X152500000Y-104000000D01*
%TO.N,Net-(RZ1-GP2)*%
X111500000Y-124900000D02*
X111500000Y-133500000D01*
X111500000Y-133500000D02*
X113000000Y-135000000D01*
X113000000Y-135000000D02*
X121000000Y-135000000D01*
X121000000Y-135000000D02*
X127500000Y-128500000D01*
X127500000Y-128500000D02*
X127500000Y-99500000D01*
%TO.N,Net-(RZ1-GND)*%
X188500000Y-146000000D02*
X188500000Y-132500000D01*
X173000000Y-119900000D02*
X173000000Y-126000000D01*
X173000000Y-126000000D02*
X176500000Y-129500000D01*
X176500000Y-129500000D02*
X185500000Y-129500000D01*
X188500000Y-132500000D02*
X188500000Y-122500000D01*
X185500000Y-129500000D02*
X188500000Y-132500000D01*
X188500000Y-94000000D02*
X192000000Y-90500000D01*
X192000000Y-90500000D02*
X192000000Y-65000000D01*
X192000000Y-65000000D02*
X187000000Y-60000000D01*
X187000000Y-60000000D02*
X178000000Y-60000000D01*
X204510000Y-48200000D02*
X198700000Y-48200000D01*
X195000000Y-44500000D02*
X195000000Y-38000000D01*
X198700000Y-48200000D02*
X195000000Y-44500000D01*
X195000000Y-38000000D02*
X186000000Y-29000000D01*
%TO.N,Net-(RZ1-GP27)*%
X168000000Y-144500000D02*
X168000000Y-117700000D01*
%TO.N,Net-(RZ1-GP26)*%
X142500000Y-143500000D02*
X142500000Y-122200000D01*
%TO.N,Net-(RZ1-GP13)*%
X201500000Y-142000000D02*
X201500000Y-77200000D01*
%TO.N,Net-(RZ1-GND)*%
X188500000Y-122500000D02*
X188500000Y-94000000D01*
X186000000Y-96500000D02*
X188500000Y-94000000D01*
%TO.N,Net-(RZ1-GP3)*%
X70500000Y-100500000D02*
X70500000Y-58400000D01*
%TO.N,Net-(RZ1-GP15)*%
X20000000Y-33200000D02*
X34000000Y-19200000D01*
X30000000Y-140000000D02*
X30000000Y-86000000D01*
X30000000Y-86000000D02*
X20000000Y-76000000D01*
X20000000Y-76000000D02*
X20000000Y-33200000D01*
%TO.N,Net-(RZ1-GP14)*%
X78500000Y-139000000D02*
X78500000Y-117700000D01*
%TO.N,Net-(RZ1-GP5)*%
X40500000Y-110500000D02*
X40500000Y-58400000D01*
%TO.N,Net-(RZ1-GND)*%
X150500000Y-104000000D02*
X152500000Y-104000000D01*
X152500000Y-104000000D02*
X158500000Y-104000000D01*
X88500000Y-39000000D02*
X83500000Y-44000000D01*
X83500000Y-44000000D02*
X83500000Y-66500000D01*
X83500000Y-66500000D02*
X88200000Y-71200000D01*
X88200000Y-71200000D02*
X91500000Y-71200000D01*
X156000000Y-41500000D02*
X159500000Y-41500000D01*
X159500000Y-41500000D02*
X162000000Y-41500000D01*
X186000000Y-29000000D02*
X212500000Y-29000000D01*
X212500000Y-29000000D02*
X222000000Y-38500000D01*
X222000000Y-38500000D02*
X222000000Y-49500000D01*
X225700000Y-53200000D02*
X231500000Y-53200000D01*
X222000000Y-49500000D02*
X225700000Y-53200000D01*
X177000000Y-29000000D02*
X186000000Y-29000000D01*
X137000000Y-104000000D02*
X150500000Y-104000000D01*
X146500000Y-100000000D02*
X150500000Y-104000000D01*
X146500000Y-88200000D02*
X146500000Y-100000000D01*
X110500000Y-137500000D02*
X120500000Y-137500000D01*
X120500000Y-137500000D02*
X130000000Y-128000000D01*
X158500000Y-104000000D02*
X160500000Y-102000000D01*
X130000000Y-128000000D02*
X130000000Y-111000000D01*
X130000000Y-111000000D02*
X137000000Y-104000000D01*
X160500000Y-102000000D02*
X166000000Y-96500000D01*
X166000000Y-96500000D02*
X175500000Y-96500000D01*
X175500000Y-96500000D02*
X186000000Y-96500000D01*
X175500000Y-96500000D02*
X173500000Y-94500000D01*
X173500000Y-94500000D02*
X173500000Y-76200000D01*
X92500000Y-137500000D02*
X110500000Y-137500000D01*
X106500000Y-122700000D02*
X106500000Y-133500000D01*
X106500000Y-133500000D02*
X110500000Y-137500000D01*
X83500000Y-119900000D02*
X83500000Y-128500000D01*
X83500000Y-128500000D02*
X92500000Y-137500000D01*
X162000000Y-41500000D02*
X164500000Y-41500000D01*
X159000000Y-31900000D02*
X159000000Y-38500000D01*
X159000000Y-38500000D02*
X156000000Y-41500000D01*
X164500000Y-41500000D02*
X177000000Y-29000000D01*
X65500000Y-39000000D02*
X88500000Y-39000000D01*
X52500000Y-5000000D02*
X72000000Y-5000000D01*
X68000000Y-14200000D02*
X73000000Y-19200000D01*
X72000000Y-5000000D02*
X68000000Y-9000000D01*
X68000000Y-9000000D02*
X68000000Y-14200000D01*
X48500000Y-14000000D02*
X48500000Y-9000000D01*
X48500000Y-9000000D02*
X52500000Y-5000000D01*
X48500000Y-16500000D02*
X48500000Y-14000000D01*
X48500000Y-14200000D02*
X48500000Y-14000000D01*
X53500000Y-19200000D02*
X48500000Y-14200000D01*
X43600000Y-21400000D02*
X48500000Y-16500000D01*
X39000000Y-21400000D02*
X43600000Y-21400000D01*
%TD*%
M02*
