%TF.GenerationSoftware,KiCad,Pcbnew,8.0.4*%
%TF.CreationDate,2024-09-01T11:28:24+09:00*%
%TF.ProjectId,nzx,6e7a782e-6b69-4636-9164-5f7063625858,rev?*%
%TF.SameCoordinates,Original*%
%TF.FileFunction,Copper,L1,Top*%
%TF.FilePolarity,Positive*%
%FSLAX46Y46*%
G04 Gerber Fmt 4.6, Leading zero omitted, Abs format (unit mm)*
G04 Created by KiCad (PCBNEW 8.0.4) date 2024-09-01 11:28:24*
%MOMM*%
%LPD*%
G01*
G04 APERTURE LIST*
%TA.AperFunction,ComponentPad*%
%ADD10O,1.600000X1.200000*%
%TD*%
%TA.AperFunction,SMDPad,CuDef*%
%ADD11R,1.600000X3.200000*%
%TD*%
%TA.AperFunction,SMDPad,CuDef*%
%ADD12R,3.200000X1.600000*%
%TD*%
%TA.AperFunction,ViaPad*%
%ADD13C,0.800000*%
%TD*%
%TA.AperFunction,Conductor*%
%ADD14C,0.250000*%
%TD*%
G04 APERTURE END LIST*
D10*
%TO.P,R2(RB)1,MP*%
%TO.N,N/C*%
X241500000Y-44000000D03*
%TO.P,R2(RB)1,2,2*%
%TO.N,Net-(RZ1-GP8)*%
X236500000Y-55400000D03*
%TO.P,R2(RB)1,1,1*%
%TO.N,Net-(RZ1-GND)*%
X231500000Y-53200000D03*
%TD*%
%TO.P,L2(LB)1,1,1*%
%TO.N,Net-(RZ1-GND)*%
X204510000Y-48200000D03*
%TO.P,L2(LB)1,2,2*%
%TO.N,Net-(RZ1-GP9)*%
X209510000Y-50400000D03*
%TO.P,L2(LB)1,MP*%
%TO.N,N/C*%
X214510000Y-39000000D03*
%TD*%
%TO.P,B4(Y)1,1,1*%
%TO.N,Net-(RZ1-GP11)*%
X176500000Y-47200000D03*
%TO.P,B4(Y)1,2,2*%
%TO.N,Net-(RZ1-GND)*%
X181500000Y-49400000D03*
%TO.P,B4(Y)1,MP*%
%TO.N,N/C*%
X186500000Y-38000000D03*
%TD*%
%TO.P,R1(R)1,1,1*%
%TO.N,Net-(RZ1-GP12)*%
X154000000Y-29700000D03*
%TO.P,R1(R)1,2,2*%
%TO.N,Net-(RZ1-GND)*%
X159000000Y-31900000D03*
%TO.P,R1(R)1,MP*%
%TO.N,N/C*%
X164000000Y-20500000D03*
%TD*%
%TO.P,B3(X)1,1,1*%
%TO.N,Net-(RZ1-GP10)*%
X150500000Y-59200000D03*
%TO.P,B3(X)1,2,2*%
%TO.N,Net-(RZ1-GND)*%
X155500000Y-61400000D03*
%TO.P,B3(X)1,MP*%
%TO.N,N/C*%
X160500000Y-50000000D03*
%TD*%
%TO.P,L1(L)1,1,1*%
%TO.N,Net-(RZ1-GP13)*%
X201500000Y-77200000D03*
%TO.P,L1(L)1,2,2*%
%TO.N,Net-(RZ1-GND)*%
X206500000Y-79400000D03*
%TO.P,L1(L)1,MP*%
%TO.N,N/C*%
X211500000Y-68000000D03*
%TD*%
%TO.P,B2(B)1,1,1*%
%TO.N,Net-(RZ1-GND)*%
X173500000Y-76200000D03*
%TO.P,B2(B)1,2,2*%
%TO.N,Net-(RZ1-GP7)*%
X178500000Y-78400000D03*
%TO.P,B2(B)1,MP*%
%TO.N,N/C*%
X183500000Y-67000000D03*
%TD*%
%TO.P,B1(A)1,MP*%
%TO.N,N/C*%
X156500000Y-79000000D03*
%TO.P,B1(A)1,2,2*%
%TO.N,Net-(RZ1-GP6)*%
X151500000Y-90400000D03*
%TO.P,B1(A)1,1,1*%
%TO.N,Net-(RZ1-GND)*%
X146500000Y-88200000D03*
%TD*%
%TO.P,R3(RS)1,MP*%
%TO.N,N/C*%
X178000000Y-108500000D03*
%TO.P,R3(RS)1,2,2*%
%TO.N,Net-(RZ1-GND)*%
X173000000Y-119900000D03*
%TO.P,R3(RS)1,1,1*%
%TO.N,Net-(RZ1-GP27)*%
X168000000Y-117700000D03*
%TD*%
%TO.P,LEFT1,1,1*%
%TO.N,Net-(RZ1-GND)*%
X35500000Y-56200000D03*
%TO.P,LEFT1,2,2*%
%TO.N,Net-(RZ1-GP5)*%
X40500000Y-58400000D03*
%TO.P,LEFT1,MP*%
%TO.N,N/C*%
X45500000Y-47000000D03*
%TD*%
%TO.P,DOWN1,MP*%
%TO.N,N/C*%
X75500000Y-47000000D03*
%TO.P,DOWN1,2,2*%
%TO.N,Net-(RZ1-GP3)*%
X70500000Y-58400000D03*
%TO.P,DOWN1,1,1*%
%TO.N,Net-(RZ1-GND)*%
X65500000Y-56200000D03*
%TD*%
%TO.P,A1(GUIDE)1,MP*%
%TO.N,N/C*%
X88500000Y-108500000D03*
%TO.P,A1(GUIDE)1,2,2*%
%TO.N,Net-(RZ1-GND)*%
X83500000Y-119900000D03*
%TO.P,A1(GUIDE)1,1,1*%
%TO.N,Net-(RZ1-GP14)*%
X78500000Y-117700000D03*
%TD*%
%TO.P,RIGHT1,1,1*%
%TO.N,Net-(RZ1-GND)*%
X91500000Y-71200000D03*
%TO.P,RIGHT1,2,2*%
%TO.N,Net-(RZ1-GP4)*%
X96500000Y-73400000D03*
%TO.P,RIGHT1,MP*%
%TO.N,N/C*%
X101500000Y-62000000D03*
%TD*%
%TO.P,UP1,1,1*%
%TO.N,Net-(RZ1-GND)*%
X106500000Y-122700000D03*
%TO.P,UP1,2,2*%
%TO.N,Net-(RZ1-GP2)*%
X111500000Y-124900000D03*
%TO.P,UP1,MP*%
%TO.N,N/C*%
X116500000Y-113500000D03*
%TD*%
D11*
%TO.P,RZ1,23,GND*%
%TO.N,Net-(RZ1-GND)*%
X5040000Y-134000000D03*
%TO.P,RZ1,22,5V*%
%TO.N,unconnected-(RZ1-5V-Pad22)*%
X2500000Y-134000000D03*
%TO.P,RZ1,21,3V3*%
%TO.N,unconnected-(RZ1-3V3-Pad21)*%
X7580000Y-134000000D03*
%TO.P,RZ1,20,GP29*%
%TO.N,unconnected-(RZ1-GP29-Pad20)*%
X10120000Y-134000000D03*
%TO.P,RZ1,19,GP28*%
%TO.N,unconnected-(RZ1-GP28-Pad19)*%
X12660000Y-134000000D03*
%TO.P,RZ1,18,GP27*%
%TO.N,Net-(RZ1-GP27)*%
X15200000Y-134000000D03*
%TO.P,RZ1,17,GP26*%
%TO.N,Net-(RZ1-GP26)*%
X17740000Y-134000000D03*
%TO.P,RZ1,16,GP15*%
%TO.N,Net-(RZ1-GP15)*%
X20280000Y-134000000D03*
%TO.P,RZ1,15,GP14*%
%TO.N,Net-(RZ1-GP14)*%
X22820000Y-134000000D03*
D12*
%TO.P,RZ1,14,GP13*%
%TO.N,Net-(RZ1-GP13)*%
X24410000Y-130080000D03*
%TO.P,RZ1,13,GP12*%
%TO.N,Net-(RZ1-GP12)*%
X24410000Y-127540000D03*
%TO.P,RZ1,12,GP11*%
%TO.N,Net-(RZ1-GP11)*%
X24410000Y-125000000D03*
%TO.P,RZ1,11,GP10*%
%TO.N,Net-(RZ1-GP10)*%
X24410000Y-122460000D03*
%TO.P,RZ1,10,GP9*%
%TO.N,Net-(RZ1-GP9)*%
X24410000Y-119920000D03*
D11*
%TO.P,RZ1,9,GP8*%
%TO.N,Net-(RZ1-GP8)*%
X22820000Y-116000000D03*
%TO.P,RZ1,8,GP7*%
%TO.N,Net-(RZ1-GP7)*%
X20280000Y-116000000D03*
%TO.P,RZ1,7,GP6*%
%TO.N,Net-(RZ1-GP6)*%
X17740000Y-116000000D03*
%TO.P,RZ1,6,GP5*%
%TO.N,Net-(RZ1-GP5)*%
X15200000Y-116000000D03*
%TO.P,RZ1,5,GP4*%
%TO.N,Net-(RZ1-GP4)*%
X12660000Y-116000000D03*
%TO.P,RZ1,4,GP3*%
%TO.N,Net-(RZ1-GP3)*%
X10120000Y-116000000D03*
%TO.P,RZ1,3,GP2*%
%TO.N,Net-(RZ1-GP2)*%
X7580000Y-116000000D03*
%TO.P,RZ1,2,GP1*%
%TO.N,Net-(RZ1-GP1)*%
X5040000Y-116000000D03*
%TO.P,RZ1,1,GP0*%
%TO.N,Net-(RZ1-GP0)*%
X2500000Y-116000000D03*
%TD*%
D10*
%TO.P,S2(START)1,1,1*%
%TO.N,Net-(RZ1-GND)*%
X73000000Y-19200000D03*
%TO.P,S2(START)1,2,2*%
%TO.N,Net-(RZ1-GP1)*%
X78000000Y-21400000D03*
%TO.P,S2(START)1,MP*%
%TO.N,N/C*%
X83000000Y-10000000D03*
%TD*%
%TO.P,S1(BACK)1,1,1*%
%TO.N,Net-(RZ1-GND)*%
X53500000Y-19200000D03*
%TO.P,S1(BACK)1,2,2*%
%TO.N,Net-(RZ1-GP0)*%
X58500000Y-21400000D03*
%TO.P,S1(BACK)1,MP*%
%TO.N,N/C*%
X63500000Y-10000000D03*
%TD*%
%TO.P,A2(CAPTURE)1,1,1*%
%TO.N,Net-(RZ1-GP15)*%
X34000000Y-19200000D03*
%TO.P,A2(CAPTURE)1,2,2*%
%TO.N,Net-(RZ1-GND)*%
X39000000Y-21400000D03*
%TO.P,A2(CAPTURE)1,MP*%
%TO.N,N/C*%
X44000000Y-10000000D03*
%TD*%
%TO.P,L3(LS)1,MP*%
%TO.N,N/C*%
X152500000Y-113000000D03*
%TO.P,L3(LS)1,2,2*%
%TO.N,Net-(RZ1-GND)*%
X147500000Y-124400000D03*
%TO.P,L3(LS)1,1,1*%
%TO.N,Net-(RZ1-GP26)*%
X142500000Y-122200000D03*
%TD*%
D13*
%TO.N,Net-(RZ1-GND)*%
X188500000Y-146000000D03*
%TO.N,Net-(RZ1-GP4)*%
X63500000Y-109500000D03*
%TO.N,Net-(RZ1-GP10)*%
X64000000Y-122500000D03*
%TO.N,Net-(RZ1-GP3)*%
X70500000Y-100500000D03*
%TO.N,Net-(RZ1-GP9)*%
X224000000Y-133000000D03*
%TO.N,Net-(RZ1-GP11)*%
X221000000Y-138500000D03*
%TO.N,Net-(RZ1-GP27)*%
X168000000Y-144500000D03*
%TO.N,Net-(RZ1-GP14)*%
X78500000Y-139000000D03*
%TO.N,Net-(RZ1-GP26)*%
X142500000Y-143500000D03*
%TO.N,Net-(RZ1-GP13)*%
X201500000Y-142000000D03*
%TO.N,Net-(RZ1-GP2)*%
X127500000Y-99500000D03*
%TO.N,Net-(RZ1-GP5)*%
X40500000Y-110500000D03*
%TO.N,Net-(RZ1-GP1)*%
X32000000Y-106500000D03*
%TO.N,Net-(RZ1-GP0)*%
X31000000Y-105500000D03*
%TO.N,Net-(RZ1-GP15)*%
X30000000Y-140000000D03*
%TD*%
D14*
%TO.N,Net-(RZ1-GP12)*%
X145500000Y-21500000D02*
X153500000Y-13500000D01*
X70540000Y-127540000D02*
X24410000Y-127540000D01*
X147200000Y-29700000D02*
X145500000Y-28000000D01*
X235500000Y-134000000D02*
X228500000Y-141000000D01*
X145500000Y-28000000D02*
X145500000Y-21500000D01*
X154000000Y-29700000D02*
X147200000Y-29700000D01*
X153500000Y-13500000D02*
X164500000Y-13500000D01*
X164500000Y-13500000D02*
X178500000Y-27500000D01*
X228500000Y-141000000D02*
X84000000Y-141000000D01*
X249000000Y-44000000D02*
X249000000Y-58500000D01*
X213000000Y-27500000D02*
X222500000Y-37000000D01*
X242000000Y-37000000D02*
X249000000Y-44000000D01*
X222500000Y-37000000D02*
X242000000Y-37000000D01*
X178500000Y-27500000D02*
X213000000Y-27500000D01*
X249000000Y-58500000D02*
X235500000Y-72000000D01*
X235500000Y-72000000D02*
X235500000Y-134000000D01*
X84000000Y-141000000D02*
X70540000Y-127540000D01*
%TO.N,Net-(RZ1-GP7)*%
X20280000Y-116000000D02*
X20280000Y-113720000D01*
X20280000Y-113720000D02*
X21500000Y-112500000D01*
X21500000Y-112500000D02*
X63500000Y-112500000D01*
X63500000Y-112500000D02*
X90000000Y-139000000D01*
X186000000Y-139000000D02*
X193000000Y-132000000D01*
X90000000Y-139000000D02*
X186000000Y-139000000D01*
X193000000Y-132000000D02*
X193000000Y-111500000D01*
X193000000Y-111500000D02*
X178500000Y-97000000D01*
X178500000Y-97000000D02*
X178500000Y-78400000D01*
%TO.N,Net-(RZ1-GP2)*%
X127500000Y-99500000D02*
X54000000Y-99500000D01*
X54000000Y-99500000D02*
X46000000Y-107500000D01*
X46000000Y-107500000D02*
X13500000Y-107500000D01*
X13500000Y-107500000D02*
X7580000Y-113420000D01*
X7580000Y-113420000D02*
X7580000Y-116000000D01*
%TO.N,Net-(RZ1-GP9)*%
X224000000Y-133000000D02*
X217050000Y-139950000D01*
X88950000Y-139950000D02*
X68920000Y-119920000D01*
X217050000Y-139950000D02*
X88950000Y-139950000D01*
X68920000Y-119920000D02*
X24410000Y-119920000D01*
%TO.N,Net-(RZ1-GND)*%
X5040000Y-134000000D02*
X5040000Y-139040000D01*
X12000000Y-146000000D02*
X188450000Y-146000000D01*
X5040000Y-139040000D02*
X12000000Y-146000000D01*
%TO.N,Net-(RZ1-GP26)*%
X142500000Y-143500000D02*
X23750000Y-143500000D01*
X17740000Y-137490000D02*
X17740000Y-134000000D01*
X23750000Y-143500000D02*
X17740000Y-137490000D01*
%TO.N,Net-(RZ1-GP27)*%
X168000000Y-144500000D02*
X22000000Y-144500000D01*
X22000000Y-144500000D02*
X15200000Y-137700000D01*
X15200000Y-137700000D02*
X15200000Y-134000000D01*
%TO.N,Net-(RZ1-GP13)*%
X143025305Y-142000000D02*
X84000000Y-142000000D01*
X84000000Y-142000000D02*
X72080000Y-130080000D01*
X72080000Y-130080000D02*
X24410000Y-130080000D01*
X201500000Y-142000000D02*
X143025305Y-142000000D01*
%TO.N,Net-(RZ1-GP4)*%
X12660000Y-116000000D02*
X12660000Y-113340000D01*
X12660000Y-113340000D02*
X16500000Y-109500000D01*
X16500000Y-109500000D02*
X63500000Y-109500000D01*
%TO.N,Net-(RZ1-GP10)*%
X63960000Y-122460000D02*
X64000000Y-122500000D01*
X24410000Y-122460000D02*
X63960000Y-122460000D01*
%TO.N,Net-(RZ1-GP3)*%
X10120000Y-116000000D02*
X10120000Y-113380000D01*
X10120000Y-113380000D02*
X15000000Y-108500000D01*
X46500000Y-108500000D02*
X54500000Y-100500000D01*
X54500000Y-100500000D02*
X70500000Y-100500000D01*
X15000000Y-108500000D02*
X46500000Y-108500000D01*
%TO.N,Net-(RZ1-GP11)*%
X24410000Y-125000000D02*
X71000000Y-125000000D01*
X71000000Y-125000000D02*
X86500000Y-140500000D01*
X86500000Y-140500000D02*
X219000000Y-140500000D01*
X219000000Y-140500000D02*
X221000000Y-138500000D01*
%TO.N,Net-(RZ1-GP8)*%
X231000000Y-119500000D02*
X211000000Y-139500000D01*
X231000000Y-60900000D02*
X231000000Y-119500000D01*
X211000000Y-139500000D02*
X89500000Y-139500000D01*
X236500000Y-55400000D02*
X231000000Y-60900000D01*
X22820000Y-114180000D02*
X22820000Y-116000000D01*
X89500000Y-139500000D02*
X63500000Y-113500000D01*
X23500000Y-113500000D02*
X22820000Y-114180000D01*
X63500000Y-113500000D02*
X23500000Y-113500000D01*
%TO.N,Net-(RZ1-GP15)*%
X30000000Y-140000000D02*
X23000000Y-140000000D01*
X20280000Y-137280000D02*
X20280000Y-134000000D01*
X23000000Y-140000000D02*
X20280000Y-137280000D01*
%TO.N,Net-(RZ1-GP14)*%
X78000000Y-139000000D02*
X78500000Y-139000000D01*
X78000000Y-139000000D02*
X24500000Y-139000000D01*
X24500000Y-139000000D02*
X22820000Y-137320000D01*
X22820000Y-137320000D02*
X22820000Y-134000000D01*
%TO.N,Net-(RZ1-GP6)*%
X17740000Y-116000000D02*
X17740000Y-113260000D01*
X19500000Y-111500000D02*
X63500000Y-111500000D01*
X185000000Y-138500000D02*
X192000000Y-131500000D01*
X151500000Y-97000000D02*
X151500000Y-90400000D01*
X17740000Y-113260000D02*
X19500000Y-111500000D01*
X63500000Y-111500000D02*
X90500000Y-138500000D01*
X90500000Y-138500000D02*
X185000000Y-138500000D01*
X192000000Y-131500000D02*
X192000000Y-112000000D01*
X192000000Y-112000000D02*
X180500000Y-100500000D01*
X180500000Y-100500000D02*
X155000000Y-100500000D01*
X155000000Y-100500000D02*
X151500000Y-97000000D01*
%TO.N,Net-(RZ1-GP5)*%
X40500000Y-110500000D02*
X18000000Y-110500000D01*
X18000000Y-110500000D02*
X15200000Y-113300000D01*
X15200000Y-113300000D02*
X15200000Y-116000000D01*
%TO.N,Net-(RZ1-GP1)*%
X32000000Y-106500000D02*
X10000000Y-106500000D01*
X10000000Y-106500000D02*
X5040000Y-111460000D01*
X5040000Y-111460000D02*
X5040000Y-116000000D01*
%TO.N,Net-(RZ1-GP0)*%
X31000000Y-105500000D02*
X8500000Y-105500000D01*
X2500000Y-111500000D02*
X2500000Y-116000000D01*
X8500000Y-105500000D02*
X2500000Y-111500000D01*
%TD*%
M02*
