M48
; DRILL file {KiCad 8.0.4} date 2024-08-31T11:22:48+0900
; FORMAT={-:-/ absolute / inch / decimal}
; #@! TF.CreationDate,2024-08-31T11:22:48+09:00
; #@! TF.GenerationSoftware,Kicad,Pcbnew,8.0.4
; #@! TF.FileFunction,NonPlated,1,2,NPTH
FMAT,2
INCH
; #@! TA.AperFunction,NonPlated,NPTH,ComponentDrill
T1C0.0669
; #@! TA.AperFunction,NonPlated,NPTH,ComponentDrill
T2C0.1969
; #@! TA.AperFunction,NonPlated,NPTH,ComponentDrill
T3C0.2362
%
G90
G05
T1
X1.5354Y-2.1063
X1.9685Y-0.689
X1.9685Y-2.1063
X2.4016Y-0.689
X2.7165Y-2.1063
X2.7362Y-0.689
X3.1496Y-2.1063
X3.1693Y-0.689
X3.189Y-4.5276
X3.5039Y-0.689
X3.622Y-4.5276
X3.7402Y-2.6969
X3.937Y-0.689
X4.1732Y-2.6969
X4.3307Y-4.7244
X4.7638Y-4.7244
X5.748Y-4.7047
X5.9055Y-3.3661
X6.063Y-2.2244
X6.1811Y-4.7047
X6.2205Y-1.0827
X6.3386Y-3.3661
X6.4961Y-2.2244
X6.6535Y-1.0827
X6.7717Y-4.5276
X6.9685Y-2.8937
X7.0866Y-1.752
X7.2047Y-4.5276
X7.4016Y-2.8937
X7.5197Y-1.752
X8.0709Y-2.9331
X8.1894Y-1.7913
X8.5039Y-2.9331
X8.6224Y-1.7913
X9.252Y-1.9882
X9.685Y-1.9882
T2
X1.752Y-2.1063
X2.185Y-0.689
X2.9331Y-2.1063
X2.9528Y-0.689
X3.4055Y-4.5276
X3.7205Y-0.689
X3.9567Y-2.6969
X4.5472Y-4.7244
X5.9646Y-4.7047
X6.122Y-3.3661
X6.2795Y-2.2244
X6.437Y-1.0827
X6.9882Y-4.5276
X7.185Y-2.8937
X7.3031Y-1.752
X8.2874Y-2.9331
X8.4059Y-1.7913
X9.4685Y-1.9882
T3
X0.6289Y-0.6289
X0.6289Y-3.6319
X0.6289Y-6.6348
X5.3445Y-0.6299
X5.3445Y-6.6348
X10.06Y-0.6289
X10.06Y-3.6713
X10.06Y-6.6348
M30
