%TF.GenerationSoftware,KiCad,Pcbnew,8.0.4*%
%TF.CreationDate,2024-08-31T11:22:35+09:00*%
%TF.ProjectId,nzx,6e7a782e-6b69-4636-9164-5f7063625858,rev?*%
%TF.SameCoordinates,Original*%
%TF.FileFunction,Legend,Top*%
%TF.FilePolarity,Positive*%
%FSLAX46Y46*%
G04 Gerber Fmt 4.6, Leading zero omitted, Abs format (unit mm)*
G04 Created by KiCad (PCBNEW 8.0.4) date 2024-08-31 11:22:35*
%MOMM*%
%LPD*%
G01*
G04 APERTURE LIST*
%ADD10C,0.250000*%
%ADD11C,0.100000*%
G04 APERTURE END LIST*
D10*
X213807330Y-61119857D02*
X212378758Y-61119857D01*
X212378758Y-61119857D02*
X212378758Y-58119857D01*
X215807329Y-59548428D02*
X216235901Y-59691285D01*
X216235901Y-59691285D02*
X216378758Y-59834142D01*
X216378758Y-59834142D02*
X216521615Y-60119857D01*
X216521615Y-60119857D02*
X216521615Y-60548428D01*
X216521615Y-60548428D02*
X216378758Y-60834142D01*
X216378758Y-60834142D02*
X216235901Y-60977000D01*
X216235901Y-60977000D02*
X215950186Y-61119857D01*
X215950186Y-61119857D02*
X214807329Y-61119857D01*
X214807329Y-61119857D02*
X214807329Y-58119857D01*
X214807329Y-58119857D02*
X215807329Y-58119857D01*
X215807329Y-58119857D02*
X216093044Y-58262714D01*
X216093044Y-58262714D02*
X216235901Y-58405571D01*
X216235901Y-58405571D02*
X216378758Y-58691285D01*
X216378758Y-58691285D02*
X216378758Y-58977000D01*
X216378758Y-58977000D02*
X216235901Y-59262714D01*
X216235901Y-59262714D02*
X216093044Y-59405571D01*
X216093044Y-59405571D02*
X215807329Y-59548428D01*
X215807329Y-59548428D02*
X214807329Y-59548428D01*
X182878758Y-87548428D02*
X183307330Y-87691285D01*
X183307330Y-87691285D02*
X183450187Y-87834142D01*
X183450187Y-87834142D02*
X183593044Y-88119857D01*
X183593044Y-88119857D02*
X183593044Y-88548428D01*
X183593044Y-88548428D02*
X183450187Y-88834142D01*
X183450187Y-88834142D02*
X183307330Y-88977000D01*
X183307330Y-88977000D02*
X183021615Y-89119857D01*
X183021615Y-89119857D02*
X181878758Y-89119857D01*
X181878758Y-89119857D02*
X181878758Y-86119857D01*
X181878758Y-86119857D02*
X182878758Y-86119857D01*
X182878758Y-86119857D02*
X183164473Y-86262714D01*
X183164473Y-86262714D02*
X183307330Y-86405571D01*
X183307330Y-86405571D02*
X183450187Y-86691285D01*
X183450187Y-86691285D02*
X183450187Y-86977000D01*
X183450187Y-86977000D02*
X183307330Y-87262714D01*
X183307330Y-87262714D02*
X183164473Y-87405571D01*
X183164473Y-87405571D02*
X182878758Y-87548428D01*
X182878758Y-87548428D02*
X181878758Y-87548428D01*
X158093044Y-69119857D02*
X160093044Y-72119857D01*
X160093044Y-69119857D02*
X158093044Y-72119857D01*
X151089473Y-135119857D02*
X149660901Y-135119857D01*
X149660901Y-135119857D02*
X149660901Y-132119857D01*
X151946615Y-134977000D02*
X152375187Y-135119857D01*
X152375187Y-135119857D02*
X153089472Y-135119857D01*
X153089472Y-135119857D02*
X153375187Y-134977000D01*
X153375187Y-134977000D02*
X153518044Y-134834142D01*
X153518044Y-134834142D02*
X153660901Y-134548428D01*
X153660901Y-134548428D02*
X153660901Y-134262714D01*
X153660901Y-134262714D02*
X153518044Y-133977000D01*
X153518044Y-133977000D02*
X153375187Y-133834142D01*
X153375187Y-133834142D02*
X153089472Y-133691285D01*
X153089472Y-133691285D02*
X152518044Y-133548428D01*
X152518044Y-133548428D02*
X152232329Y-133405571D01*
X152232329Y-133405571D02*
X152089472Y-133262714D01*
X152089472Y-133262714D02*
X151946615Y-132977000D01*
X151946615Y-132977000D02*
X151946615Y-132691285D01*
X151946615Y-132691285D02*
X152089472Y-132405571D01*
X152089472Y-132405571D02*
X152232329Y-132262714D01*
X152232329Y-132262714D02*
X152518044Y-132119857D01*
X152518044Y-132119857D02*
X153232329Y-132119857D01*
X153232329Y-132119857D02*
X153660901Y-132262714D01*
X88235901Y-30977000D02*
X88664473Y-31119857D01*
X88664473Y-31119857D02*
X89378758Y-31119857D01*
X89378758Y-31119857D02*
X89664473Y-30977000D01*
X89664473Y-30977000D02*
X89807330Y-30834142D01*
X89807330Y-30834142D02*
X89950187Y-30548428D01*
X89950187Y-30548428D02*
X89950187Y-30262714D01*
X89950187Y-30262714D02*
X89807330Y-29977000D01*
X89807330Y-29977000D02*
X89664473Y-29834142D01*
X89664473Y-29834142D02*
X89378758Y-29691285D01*
X89378758Y-29691285D02*
X88807330Y-29548428D01*
X88807330Y-29548428D02*
X88521615Y-29405571D01*
X88521615Y-29405571D02*
X88378758Y-29262714D01*
X88378758Y-29262714D02*
X88235901Y-28977000D01*
X88235901Y-28977000D02*
X88235901Y-28691285D01*
X88235901Y-28691285D02*
X88378758Y-28405571D01*
X88378758Y-28405571D02*
X88521615Y-28262714D01*
X88521615Y-28262714D02*
X88807330Y-28119857D01*
X88807330Y-28119857D02*
X89521615Y-28119857D01*
X89521615Y-28119857D02*
X89950187Y-28262714D01*
X90807330Y-28119857D02*
X92521616Y-28119857D01*
X91664473Y-31119857D02*
X91664473Y-28119857D01*
X93378758Y-30262714D02*
X94807330Y-30262714D01*
X93093044Y-31119857D02*
X94093044Y-28119857D01*
X94093044Y-28119857D02*
X95093044Y-31119857D01*
X97807330Y-31119857D02*
X96807330Y-29691285D01*
X96093044Y-31119857D02*
X96093044Y-28119857D01*
X96093044Y-28119857D02*
X97235901Y-28119857D01*
X97235901Y-28119857D02*
X97521616Y-28262714D01*
X97521616Y-28262714D02*
X97664473Y-28405571D01*
X97664473Y-28405571D02*
X97807330Y-28691285D01*
X97807330Y-28691285D02*
X97807330Y-29119857D01*
X97807330Y-29119857D02*
X97664473Y-29405571D01*
X97664473Y-29405571D02*
X97521616Y-29548428D01*
X97521616Y-29548428D02*
X97235901Y-29691285D01*
X97235901Y-29691285D02*
X96093044Y-29691285D01*
X98664473Y-28119857D02*
X100378759Y-28119857D01*
X99521616Y-31119857D02*
X99521616Y-28119857D01*
X53593044Y-30834142D02*
X53450187Y-30977000D01*
X53450187Y-30977000D02*
X53021615Y-31119857D01*
X53021615Y-31119857D02*
X52735901Y-31119857D01*
X52735901Y-31119857D02*
X52307330Y-30977000D01*
X52307330Y-30977000D02*
X52021615Y-30691285D01*
X52021615Y-30691285D02*
X51878758Y-30405571D01*
X51878758Y-30405571D02*
X51735901Y-29834142D01*
X51735901Y-29834142D02*
X51735901Y-29405571D01*
X51735901Y-29405571D02*
X51878758Y-28834142D01*
X51878758Y-28834142D02*
X52021615Y-28548428D01*
X52021615Y-28548428D02*
X52307330Y-28262714D01*
X52307330Y-28262714D02*
X52735901Y-28119857D01*
X52735901Y-28119857D02*
X53021615Y-28119857D01*
X53021615Y-28119857D02*
X53450187Y-28262714D01*
X53450187Y-28262714D02*
X53593044Y-28405571D01*
X54735901Y-30262714D02*
X56164473Y-30262714D01*
X54450187Y-31119857D02*
X55450187Y-28119857D01*
X55450187Y-28119857D02*
X56450187Y-31119857D01*
X57450187Y-31119857D02*
X57450187Y-28119857D01*
X57450187Y-28119857D02*
X58593044Y-28119857D01*
X58593044Y-28119857D02*
X58878759Y-28262714D01*
X58878759Y-28262714D02*
X59021616Y-28405571D01*
X59021616Y-28405571D02*
X59164473Y-28691285D01*
X59164473Y-28691285D02*
X59164473Y-29119857D01*
X59164473Y-29119857D02*
X59021616Y-29405571D01*
X59021616Y-29405571D02*
X58878759Y-29548428D01*
X58878759Y-29548428D02*
X58593044Y-29691285D01*
X58593044Y-29691285D02*
X57450187Y-29691285D01*
X185589473Y-58691285D02*
X185589473Y-60119857D01*
X184589473Y-57119857D02*
X185589473Y-58691285D01*
X185589473Y-58691285D02*
X186589473Y-57119857D01*
X177688282Y-130181047D02*
X176854949Y-128990571D01*
X176259711Y-130181047D02*
X176259711Y-127681047D01*
X176259711Y-127681047D02*
X177212092Y-127681047D01*
X177212092Y-127681047D02*
X177450187Y-127800095D01*
X177450187Y-127800095D02*
X177569234Y-127919142D01*
X177569234Y-127919142D02*
X177688282Y-128157238D01*
X177688282Y-128157238D02*
X177688282Y-128514380D01*
X177688282Y-128514380D02*
X177569234Y-128752476D01*
X177569234Y-128752476D02*
X177450187Y-128871523D01*
X177450187Y-128871523D02*
X177212092Y-128990571D01*
X177212092Y-128990571D02*
X176259711Y-128990571D01*
X178640663Y-130062000D02*
X178997806Y-130181047D01*
X178997806Y-130181047D02*
X179593044Y-130181047D01*
X179593044Y-130181047D02*
X179831139Y-130062000D01*
X179831139Y-130062000D02*
X179950187Y-129942952D01*
X179950187Y-129942952D02*
X180069234Y-129704857D01*
X180069234Y-129704857D02*
X180069234Y-129466761D01*
X180069234Y-129466761D02*
X179950187Y-129228666D01*
X179950187Y-129228666D02*
X179831139Y-129109619D01*
X179831139Y-129109619D02*
X179593044Y-128990571D01*
X179593044Y-128990571D02*
X179116853Y-128871523D01*
X179116853Y-128871523D02*
X178878758Y-128752476D01*
X178878758Y-128752476D02*
X178759711Y-128633428D01*
X178759711Y-128633428D02*
X178640663Y-128395333D01*
X178640663Y-128395333D02*
X178640663Y-128157238D01*
X178640663Y-128157238D02*
X178759711Y-127919142D01*
X178759711Y-127919142D02*
X178878758Y-127800095D01*
X178878758Y-127800095D02*
X179116853Y-127681047D01*
X179116853Y-127681047D02*
X179712092Y-127681047D01*
X179712092Y-127681047D02*
X180069234Y-127800095D01*
X210807330Y-90119857D02*
X209378758Y-90119857D01*
X209378758Y-90119857D02*
X209378758Y-87119857D01*
X211378758Y-87119857D02*
X213093044Y-87119857D01*
X212235901Y-90119857D02*
X212235901Y-87119857D01*
X71378758Y-29548428D02*
X71807330Y-29691285D01*
X71807330Y-29691285D02*
X71950187Y-29834142D01*
X71950187Y-29834142D02*
X72093044Y-30119857D01*
X72093044Y-30119857D02*
X72093044Y-30548428D01*
X72093044Y-30548428D02*
X71950187Y-30834142D01*
X71950187Y-30834142D02*
X71807330Y-30977000D01*
X71807330Y-30977000D02*
X71521615Y-31119857D01*
X71521615Y-31119857D02*
X70378758Y-31119857D01*
X70378758Y-31119857D02*
X70378758Y-28119857D01*
X70378758Y-28119857D02*
X71378758Y-28119857D01*
X71378758Y-28119857D02*
X71664473Y-28262714D01*
X71664473Y-28262714D02*
X71807330Y-28405571D01*
X71807330Y-28405571D02*
X71950187Y-28691285D01*
X71950187Y-28691285D02*
X71950187Y-28977000D01*
X71950187Y-28977000D02*
X71807330Y-29262714D01*
X71807330Y-29262714D02*
X71664473Y-29405571D01*
X71664473Y-29405571D02*
X71378758Y-29548428D01*
X71378758Y-29548428D02*
X70378758Y-29548428D01*
X73235901Y-30262714D02*
X74664473Y-30262714D01*
X72950187Y-31119857D02*
X73950187Y-28119857D01*
X73950187Y-28119857D02*
X74950187Y-31119857D01*
X77664473Y-30834142D02*
X77521616Y-30977000D01*
X77521616Y-30977000D02*
X77093044Y-31119857D01*
X77093044Y-31119857D02*
X76807330Y-31119857D01*
X76807330Y-31119857D02*
X76378759Y-30977000D01*
X76378759Y-30977000D02*
X76093044Y-30691285D01*
X76093044Y-30691285D02*
X75950187Y-30405571D01*
X75950187Y-30405571D02*
X75807330Y-29834142D01*
X75807330Y-29834142D02*
X75807330Y-29405571D01*
X75807330Y-29405571D02*
X75950187Y-28834142D01*
X75950187Y-28834142D02*
X76093044Y-28548428D01*
X76093044Y-28548428D02*
X76378759Y-28262714D01*
X76378759Y-28262714D02*
X76807330Y-28119857D01*
X76807330Y-28119857D02*
X77093044Y-28119857D01*
X77093044Y-28119857D02*
X77521616Y-28262714D01*
X77521616Y-28262714D02*
X77664473Y-28405571D01*
X78950187Y-31119857D02*
X78950187Y-28119857D01*
X80664473Y-31119857D02*
X79378759Y-29405571D01*
X80664473Y-28119857D02*
X78950187Y-29834142D01*
X154235901Y-100262714D02*
X155664473Y-100262714D01*
X153950187Y-101119857D02*
X154950187Y-98119857D01*
X154950187Y-98119857D02*
X155950187Y-101119857D01*
X240018044Y-66119857D02*
X239018044Y-64691285D01*
X238303758Y-66119857D02*
X238303758Y-63119857D01*
X238303758Y-63119857D02*
X239446615Y-63119857D01*
X239446615Y-63119857D02*
X239732330Y-63262714D01*
X239732330Y-63262714D02*
X239875187Y-63405571D01*
X239875187Y-63405571D02*
X240018044Y-63691285D01*
X240018044Y-63691285D02*
X240018044Y-64119857D01*
X240018044Y-64119857D02*
X239875187Y-64405571D01*
X239875187Y-64405571D02*
X239732330Y-64548428D01*
X239732330Y-64548428D02*
X239446615Y-64691285D01*
X239446615Y-64691285D02*
X238303758Y-64691285D01*
X242303758Y-64548428D02*
X242732330Y-64691285D01*
X242732330Y-64691285D02*
X242875187Y-64834142D01*
X242875187Y-64834142D02*
X243018044Y-65119857D01*
X243018044Y-65119857D02*
X243018044Y-65548428D01*
X243018044Y-65548428D02*
X242875187Y-65834142D01*
X242875187Y-65834142D02*
X242732330Y-65977000D01*
X242732330Y-65977000D02*
X242446615Y-66119857D01*
X242446615Y-66119857D02*
X241303758Y-66119857D01*
X241303758Y-66119857D02*
X241303758Y-63119857D01*
X241303758Y-63119857D02*
X242303758Y-63119857D01*
X242303758Y-63119857D02*
X242589473Y-63262714D01*
X242589473Y-63262714D02*
X242732330Y-63405571D01*
X242732330Y-63405571D02*
X242875187Y-63691285D01*
X242875187Y-63691285D02*
X242875187Y-63977000D01*
X242875187Y-63977000D02*
X242732330Y-64262714D01*
X242732330Y-64262714D02*
X242589473Y-64405571D01*
X242589473Y-64405571D02*
X242303758Y-64548428D01*
X242303758Y-64548428D02*
X241303758Y-64548428D01*
X164093044Y-43119857D02*
X163093044Y-41691285D01*
X162378758Y-43119857D02*
X162378758Y-40119857D01*
X162378758Y-40119857D02*
X163521615Y-40119857D01*
X163521615Y-40119857D02*
X163807330Y-40262714D01*
X163807330Y-40262714D02*
X163950187Y-40405571D01*
X163950187Y-40405571D02*
X164093044Y-40691285D01*
X164093044Y-40691285D02*
X164093044Y-41119857D01*
X164093044Y-41119857D02*
X163950187Y-41405571D01*
X163950187Y-41405571D02*
X163807330Y-41548428D01*
X163807330Y-41548428D02*
X163521615Y-41691285D01*
X163521615Y-41691285D02*
X162378758Y-41691285D01*
X164950187Y-40119857D02*
X166664473Y-40119857D01*
X165807330Y-43119857D02*
X165807330Y-40119857D01*
D11*
%TO.C,B1(A)1*%
X167500000Y-85500000D02*
G75*
G02*
X143500000Y-85500000I-12000000J0D01*
G01*
X143500000Y-85500000D02*
G75*
G02*
X167500000Y-85500000I12000000J0D01*
G01*
%TO.C,LEFT1*%
X56500000Y-53500000D02*
G75*
G02*
X32500000Y-53500000I-12000000J0D01*
G01*
X32500000Y-53500000D02*
G75*
G02*
X56500000Y-53500000I12000000J0D01*
G01*
%TO.C,RIGHT1*%
X112500000Y-68500000D02*
G75*
G02*
X88500000Y-68500000I-12000000J0D01*
G01*
X88500000Y-68500000D02*
G75*
G02*
X112500000Y-68500000I12000000J0D01*
G01*
%TO.C,L1(L)1*%
X222500000Y-74500000D02*
G75*
G02*
X198500000Y-74500000I-12000000J0D01*
G01*
X198500000Y-74500000D02*
G75*
G02*
X222500000Y-74500000I12000000J0D01*
G01*
%TO.C,B2(B)1*%
X194500000Y-73500000D02*
G75*
G02*
X170500000Y-73500000I-12000000J0D01*
G01*
X170500000Y-73500000D02*
G75*
G02*
X194500000Y-73500000I12000000J0D01*
G01*
%TO.C,L2(LB)1*%
X225510000Y-45500000D02*
G75*
G02*
X201510000Y-45500000I-12000000J0D01*
G01*
X201510000Y-45500000D02*
G75*
G02*
X225510000Y-45500000I12000000J0D01*
G01*
%TO.C,DOWN1*%
X86500000Y-53500000D02*
G75*
G02*
X62500000Y-53500000I-12000000J0D01*
G01*
X62500000Y-53500000D02*
G75*
G02*
X86500000Y-53500000I12000000J0D01*
G01*
%TO.C,B4(Y)1*%
X197500000Y-44500000D02*
G75*
G02*
X173500000Y-44500000I-12000000J0D01*
G01*
X173500000Y-44500000D02*
G75*
G02*
X197500000Y-44500000I12000000J0D01*
G01*
%TO.C,UP1*%
X130500000Y-120000000D02*
G75*
G02*
X100500000Y-120000000I-15000000J0D01*
G01*
X100500000Y-120000000D02*
G75*
G02*
X130500000Y-120000000I15000000J0D01*
G01*
%TO.C,R3(RS)1*%
X189500000Y-115000000D02*
G75*
G02*
X165500000Y-115000000I-12000000J0D01*
G01*
X165500000Y-115000000D02*
G75*
G02*
X189500000Y-115000000I12000000J0D01*
G01*
%TO.C,R1(R)1*%
X175500000Y-27500000D02*
G75*
G02*
X151500000Y-27500000I-12000000J0D01*
G01*
X151500000Y-27500000D02*
G75*
G02*
X175500000Y-27500000I12000000J0D01*
G01*
%TO.C,A1(GUIDE)1*%
X98500000Y-115000000D02*
G75*
G02*
X74500000Y-115000000I-12000000J0D01*
G01*
X74500000Y-115000000D02*
G75*
G02*
X98500000Y-115000000I12000000J0D01*
G01*
%TO.C,L3(LS)1*%
X163500000Y-119500000D02*
G75*
G02*
X139500000Y-119500000I-12000000J0D01*
G01*
X139500000Y-119500000D02*
G75*
G02*
X163500000Y-119500000I12000000J0D01*
G01*
%TO.C,R2(RB)1*%
X252500000Y-50500000D02*
G75*
G02*
X228500000Y-50500000I-12000000J0D01*
G01*
X228500000Y-50500000D02*
G75*
G02*
X252500000Y-50500000I12000000J0D01*
G01*
%TO.C,B3(X)1*%
X171500000Y-56500000D02*
G75*
G02*
X147500000Y-56500000I-12000000J0D01*
G01*
X147500000Y-56500000D02*
G75*
G02*
X171500000Y-56500000I12000000J0D01*
G01*
%TD*%
M02*
