%TF.GenerationSoftware,KiCad,Pcbnew,8.0.4*%
%TF.CreationDate,2024-08-31T11:22:34+09:00*%
%TF.ProjectId,nzx,6e7a782e-6b69-4636-9164-5f7063625858,rev?*%
%TF.SameCoordinates,Original*%
%TF.FileFunction,Copper,L2,Bot*%
%TF.FilePolarity,Positive*%
%FSLAX46Y46*%
G04 Gerber Fmt 4.6, Leading zero omitted, Abs format (unit mm)*
G04 Created by KiCad (PCBNEW 8.0.4) date 2024-08-31 11:22:34*
%MOMM*%
%LPD*%
G01*
G04 APERTURE LIST*
%TA.AperFunction,ComponentPad*%
%ADD10O,1.600000X1.200000*%
%TD*%
%TA.AperFunction,ViaPad*%
%ADD11C,0.800000*%
%TD*%
%TA.AperFunction,Conductor*%
%ADD12C,0.250000*%
%TD*%
G04 APERTURE END LIST*
D10*
%TO.P,B1(A)1,1,1*%
%TO.N,Net-(RZ1-GND)*%
X150500000Y-89200000D03*
%TO.P,B1(A)1,2,2*%
%TO.N,Net-(RZ1-GP6)*%
X155500000Y-91400000D03*
%TO.P,B1(A)1,MP*%
%TO.N,N/C*%
X160500000Y-80000000D03*
%TD*%
%TO.P,LEFT1,1,1*%
%TO.N,Net-(RZ1-GND)*%
X39500000Y-57200000D03*
%TO.P,LEFT1,2,2*%
%TO.N,Net-(RZ1-GP5)*%
X44500000Y-59400000D03*
%TO.P,LEFT1,MP*%
%TO.N,N/C*%
X49500000Y-48000000D03*
%TD*%
%TO.P,RIGHT1,1,1*%
%TO.N,Net-(RZ1-GND)*%
X95500000Y-72200000D03*
%TO.P,RIGHT1,2,2*%
%TO.N,Net-(RZ1-GP4)*%
X100500000Y-74400000D03*
%TO.P,RIGHT1,MP*%
%TO.N,N/C*%
X105500000Y-63000000D03*
%TD*%
%TO.P,L1(L)1,1,1*%
%TO.N,Net-(RZ1-GP13)*%
X205500000Y-78200000D03*
%TO.P,L1(L)1,2,2*%
%TO.N,Net-(RZ1-GND)*%
X210500000Y-80400000D03*
%TO.P,L1(L)1,MP*%
%TO.N,N/C*%
X215500000Y-69000000D03*
%TD*%
%TO.P,B2(B)1,1,1*%
%TO.N,Net-(RZ1-GND)*%
X177500000Y-77200000D03*
%TO.P,B2(B)1,2,2*%
%TO.N,Net-(RZ1-GP7)*%
X182500000Y-79400000D03*
%TO.P,B2(B)1,MP*%
%TO.N,N/C*%
X187500000Y-68000000D03*
%TD*%
%TO.P,S2(START)1,1,1*%
%TO.N,Net-(RZ1-GND)*%
X89500000Y-21200000D03*
%TO.P,S2(START)1,2,2*%
%TO.N,Net-(RZ1-GP1)*%
X94500000Y-23400000D03*
%TO.P,S2(START)1,MP*%
%TO.N,N/C*%
X99500000Y-12000000D03*
%TD*%
%TO.P,L2(LB)1,1,1*%
%TO.N,Net-(RZ1-GND)*%
X208510000Y-49200000D03*
%TO.P,L2(LB)1,2,2*%
%TO.N,Net-(RZ1-GP9)*%
X213510000Y-51400000D03*
%TO.P,L2(LB)1,MP*%
%TO.N,N/C*%
X218510000Y-40000000D03*
%TD*%
%TO.P,DOWN1,1,1*%
%TO.N,Net-(RZ1-GND)*%
X69500000Y-57200000D03*
%TO.P,DOWN1,2,2*%
%TO.N,Net-(RZ1-GP3)*%
X74500000Y-59400000D03*
%TO.P,DOWN1,MP*%
%TO.N,N/C*%
X79500000Y-48000000D03*
%TD*%
%TO.P,S1(BACK)1,1,1*%
%TO.N,Net-(RZ1-GND)*%
X70000000Y-21200000D03*
%TO.P,S1(BACK)1,2,2*%
%TO.N,Net-(RZ1-GP0)*%
X75000000Y-23400000D03*
%TO.P,S1(BACK)1,MP*%
%TO.N,N/C*%
X80000000Y-12000000D03*
%TD*%
%TO.P,A2(CAPTURE)1,1,1*%
%TO.N,Net-(RZ1-GP15)*%
X50500000Y-21200000D03*
%TO.P,A2(CAPTURE)1,2,2*%
%TO.N,Net-(RZ1-GND)*%
X55500000Y-23400000D03*
%TO.P,A2(CAPTURE)1,MP*%
%TO.N,N/C*%
X60500000Y-12000000D03*
%TD*%
%TO.P,B4(Y)1,1,1*%
%TO.N,Net-(RZ1-GP11)*%
X180500000Y-48200000D03*
%TO.P,B4(Y)1,2,2*%
%TO.N,Net-(RZ1-GND)*%
X185500000Y-50400000D03*
%TO.P,B4(Y)1,MP*%
%TO.N,N/C*%
X190500000Y-39000000D03*
%TD*%
%TO.P,UP1,1,1*%
%TO.N,Net-(RZ1-GND)*%
X110500000Y-123700000D03*
%TO.P,UP1,2,2*%
%TO.N,Net-(RZ1-GP2)*%
X115500000Y-125900000D03*
%TO.P,UP1,MP*%
%TO.N,N/C*%
X120500000Y-114500000D03*
%TD*%
%TO.P,R3(RS)1,1,1*%
%TO.N,Net-(RZ1-GP27)*%
X172500000Y-118700000D03*
%TO.P,R3(RS)1,2,2*%
%TO.N,Net-(RZ1-GND)*%
X177500000Y-120900000D03*
%TO.P,R3(RS)1,MP*%
%TO.N,N/C*%
X182500000Y-109500000D03*
%TD*%
%TO.P,R1(R)1,1,1*%
%TO.N,Net-(RZ1-GP12)*%
X158500000Y-31200000D03*
%TO.P,R1(R)1,2,2*%
%TO.N,Net-(RZ1-GND)*%
X163500000Y-33400000D03*
%TO.P,R1(R)1,MP*%
%TO.N,N/C*%
X168500000Y-22000000D03*
%TD*%
%TO.P,A1(GUIDE)1,1,1*%
%TO.N,Net-(RZ1-GP14)*%
X81500000Y-118700000D03*
%TO.P,A1(GUIDE)1,2,2*%
%TO.N,Net-(RZ1-GND)*%
X86500000Y-120900000D03*
%TO.P,A1(GUIDE)1,MP*%
%TO.N,N/C*%
X91500000Y-109500000D03*
%TD*%
%TO.P,L3(LS)1,1,1*%
%TO.N,Net-(RZ1-GP26)*%
X146500000Y-123200000D03*
%TO.P,L3(LS)1,2,2*%
%TO.N,Net-(RZ1-GND)*%
X151500000Y-125400000D03*
%TO.P,L3(LS)1,MP*%
%TO.N,N/C*%
X156500000Y-114000000D03*
%TD*%
%TO.P,R2(RB)1,1,1*%
%TO.N,Net-(RZ1-GND)*%
X235500000Y-54200000D03*
%TO.P,R2(RB)1,2,2*%
%TO.N,Net-(RZ1-GP8)*%
X240500000Y-56400000D03*
%TO.P,R2(RB)1,MP*%
%TO.N,N/C*%
X245500000Y-45000000D03*
%TD*%
%TO.P,B3(X)1,1,1*%
%TO.N,Net-(RZ1-GP10)*%
X154500000Y-60200000D03*
%TO.P,B3(X)1,2,2*%
%TO.N,Net-(RZ1-GND)*%
X159500000Y-62400000D03*
%TO.P,B3(X)1,MP*%
%TO.N,N/C*%
X164500000Y-51000000D03*
%TD*%
D11*
%TO.N,Net-(RZ1-GP0)*%
X57000000Y-105000000D03*
%TO.N,Net-(RZ1-GP14)*%
X70000000Y-144500000D03*
%TO.N,Net-(RZ1-GND)*%
X192500000Y-152500000D03*
X60000000Y-38000000D03*
%TO.N,Net-(RZ1-GP15)*%
X28500000Y-147000000D03*
%TO.N,Net-(RZ1-GP10)*%
X67500000Y-129500000D03*
%TO.N,Net-(RZ1-GP11)*%
X228000000Y-144000000D03*
%TO.N,Net-(RZ1-GP3)*%
X60500000Y-111500000D03*
%TO.N,Net-(RZ1-GP13)*%
X205500000Y-147000000D03*
%TO.N,Net-(RZ1-GP9)*%
X229500000Y-142500000D03*
%TO.N,Net-(RZ1-GP26)*%
X146500000Y-148500000D03*
%TO.N,Net-(RZ1-GP5)*%
X44500000Y-115000000D03*
%TO.N,Net-(RZ1-GP27)*%
X172500000Y-150000000D03*
%TO.N,Net-(RZ1-GP4)*%
X64500000Y-113500000D03*
%TO.N,Net-(RZ1-GP1)*%
X58500000Y-107000000D03*
%TD*%
D12*
%TO.N,Net-(RZ1-GP0)*%
X57000000Y-105000000D02*
X57000000Y-37000000D01*
X75000000Y-28000000D02*
X75000000Y-23400000D01*
X57000000Y-37000000D02*
X60500000Y-33500000D01*
X60500000Y-33500000D02*
X69500000Y-33500000D01*
X69500000Y-33500000D02*
X75000000Y-28000000D01*
%TO.N,Net-(RZ1-GP14)*%
X70000000Y-144500000D02*
X70000000Y-143000000D01*
X81500000Y-131500000D02*
X81500000Y-118700000D01*
X70000000Y-143000000D02*
X81500000Y-131500000D01*
%TO.N,Net-(RZ1-GND)*%
X227500000Y-49000000D02*
X232700000Y-54200000D01*
X65300000Y-16500000D02*
X70000000Y-21200000D01*
X170000000Y-100500000D02*
X164500000Y-106000000D01*
X68065000Y-6500000D02*
X64000000Y-10565000D01*
X199500000Y-41500000D02*
X207200000Y-49200000D01*
X99800000Y-137000000D02*
X127500000Y-137000000D01*
X196000000Y-30500000D02*
X199500000Y-34000000D01*
X86500000Y-121050000D02*
X86550000Y-121050000D01*
X192500000Y-106500000D02*
X192500000Y-152500000D01*
X110500000Y-123700000D02*
X110500000Y-128500000D01*
X110500000Y-128500000D02*
X119000000Y-137000000D01*
X179250000Y-57250000D02*
X182000000Y-60000000D01*
X225000000Y-73000000D02*
X217600000Y-80400000D01*
X177500000Y-124000000D02*
X177500000Y-120900000D01*
X192500000Y-139000000D02*
X177500000Y-124000000D01*
X164500000Y-123000000D02*
X162100000Y-125400000D01*
X200000000Y-30500000D02*
X224500000Y-30500000D01*
X225000000Y-67000000D02*
X225000000Y-73000000D01*
X158000000Y-100500000D02*
X150500000Y-93000000D01*
X232700000Y-54200000D02*
X235500000Y-54200000D01*
X182500000Y-100500000D02*
X177500000Y-95500000D01*
X199500000Y-41500000D02*
X190600000Y-50400000D01*
X104500000Y-6500000D02*
X68065000Y-6500000D01*
X191500000Y-60000000D02*
X196000000Y-64500000D01*
X177500000Y-95500000D02*
X177500000Y-77200000D01*
X176500000Y-33400000D02*
X163500000Y-33400000D01*
X150500000Y-93000000D02*
X150500000Y-89200000D01*
X99800000Y-137000000D02*
X86500000Y-123700000D01*
X218000000Y-60000000D02*
X225000000Y-67000000D01*
X64000000Y-16000000D02*
X64000000Y-18500000D01*
X171200000Y-59800000D02*
X173750000Y-57250000D01*
X107500000Y-9500000D02*
X104500000Y-6500000D01*
X159500000Y-62400000D02*
X162100000Y-59800000D01*
X207200000Y-49200000D02*
X208510000Y-49200000D01*
X164500000Y-106000000D02*
X164500000Y-123000000D01*
X83000000Y-19000000D02*
X85200000Y-21200000D01*
X199500000Y-34000000D02*
X199500000Y-41500000D01*
X164500000Y-42500000D02*
X179250000Y-57250000D01*
X86500000Y-123700000D02*
X86500000Y-120900000D01*
X164000000Y-42500000D02*
X109500000Y-42500000D01*
X224500000Y-30500000D02*
X227500000Y-33500000D01*
X196000000Y-79500000D02*
X192500000Y-83000000D01*
X162100000Y-125400000D02*
X151500000Y-125400000D01*
X186500000Y-100500000D02*
X192500000Y-106500000D01*
X164000000Y-42500000D02*
X167500000Y-42500000D01*
X192500000Y-83000000D02*
X192500000Y-106500000D01*
X147000000Y-100500000D02*
X186500000Y-100500000D01*
X61975000Y-20525000D02*
X58375000Y-20525000D01*
X107500000Y-40500000D02*
X107500000Y-9500000D01*
X109500000Y-42500000D02*
X105000000Y-38000000D01*
X196000000Y-64500000D02*
X196000000Y-79500000D01*
X182000000Y-60000000D02*
X196500000Y-60000000D01*
X64000000Y-10565000D02*
X64000000Y-16000000D01*
X136500000Y-128000000D02*
X136500000Y-111000000D01*
X127500000Y-137000000D02*
X136500000Y-128000000D01*
X89767588Y-6500000D02*
X83000000Y-13267588D01*
X60000000Y-38000000D02*
X105000000Y-38000000D01*
X85200000Y-21200000D02*
X89500000Y-21200000D01*
X227500000Y-33500000D02*
X227500000Y-49000000D01*
X179500000Y-30500000D02*
X200000000Y-30500000D01*
X64000000Y-18500000D02*
X61975000Y-20525000D01*
X136500000Y-111000000D02*
X147000000Y-100500000D01*
X58375000Y-20525000D02*
X55500000Y-23400000D01*
X176550000Y-33450000D02*
X176500000Y-33400000D01*
X167500000Y-42500000D02*
X179500000Y-30500000D01*
X217600000Y-80400000D02*
X210500000Y-80400000D01*
X64000000Y-16500000D02*
X65300000Y-16500000D01*
X83000000Y-13267588D02*
X83000000Y-19000000D01*
X190600000Y-50400000D02*
X185500000Y-50400000D01*
X164000000Y-42500000D02*
X164500000Y-42500000D01*
X162100000Y-59800000D02*
X171200000Y-59800000D01*
X196500000Y-60000000D02*
X218000000Y-60000000D01*
X173750000Y-57250000D02*
X173750000Y-51750000D01*
%TO.N,Net-(RZ1-GP15)*%
X28500000Y-147000000D02*
X28500000Y-34000000D01*
X50500000Y-28500000D02*
X50500000Y-21200000D01*
X32500000Y-30000000D02*
X49000000Y-30000000D01*
X28500000Y-34000000D02*
X32500000Y-30000000D01*
X49000000Y-30000000D02*
X50500000Y-28500000D01*
%TO.N,Net-(RZ1-GP10)*%
X128000000Y-71000000D02*
X111500000Y-87500000D01*
X154500000Y-66500000D02*
X150000000Y-71000000D01*
X154500000Y-60200000D02*
X154500000Y-66500000D01*
X111500000Y-87500000D02*
X72000000Y-87500000D01*
X150000000Y-71000000D02*
X128000000Y-71000000D01*
X67500000Y-92000000D02*
X67500000Y-129500000D01*
X72000000Y-87500000D02*
X67500000Y-92000000D01*
%TO.N,Net-(RZ1-GP11)*%
X219500000Y-58500000D02*
X190800000Y-58500000D01*
X228000000Y-67000000D02*
X219500000Y-58500000D01*
X190800000Y-58500000D02*
X180500000Y-48200000D01*
X228000000Y-144000000D02*
X228000000Y-67000000D01*
%TO.N,Net-(RZ1-GP3)*%
X60500000Y-111500000D02*
X60500000Y-90500000D01*
X74500000Y-76500000D02*
X74500000Y-59400000D01*
X60500000Y-90500000D02*
X74500000Y-76500000D01*
%TO.N,Net-(RZ1-GP13)*%
X205500000Y-147000000D02*
X205500000Y-78200000D01*
%TO.N,Net-(RZ1-GP9)*%
X229500000Y-65500000D02*
X215400000Y-51400000D01*
X229500000Y-142500000D02*
X229500000Y-65500000D01*
X215400000Y-51400000D02*
X213510000Y-51400000D01*
%TO.N,Net-(RZ1-GP26)*%
X146500000Y-148500000D02*
X146500000Y-123200000D01*
%TO.N,Net-(RZ1-GP5)*%
X44500000Y-115000000D02*
X44500000Y-59400000D01*
%TO.N,Net-(RZ1-GP27)*%
X172500000Y-150000000D02*
X172500000Y-118700000D01*
%TO.N,Net-(RZ1-GP4)*%
X100450000Y-74500000D02*
X100500000Y-74550000D01*
X92000000Y-85500000D02*
X100500000Y-77000000D01*
X64500000Y-92000000D02*
X71000000Y-85500000D01*
X71000000Y-85500000D02*
X92000000Y-85500000D01*
X100500000Y-77000000D02*
X100500000Y-74400000D01*
X64500000Y-113500000D02*
X64500000Y-92000000D01*
%TO.N,Net-(RZ1-GP1)*%
X58500000Y-37000000D02*
X61000000Y-34500000D01*
X61000000Y-34500000D02*
X88000000Y-34500000D01*
X88000000Y-34500000D02*
X94500000Y-28000000D01*
X58500000Y-107000000D02*
X58500000Y-37000000D01*
X94500000Y-28000000D02*
X94500000Y-23400000D01*
%TD*%
M02*
