%TF.GenerationSoftware,KiCad,Pcbnew,8.0.4*%
%TF.CreationDate,2024-08-25T10:48:18+09:00*%
%TF.ProjectId,StickLess,53746963-6b4c-4657-9373-2e6b69636164,rev?*%
%TF.SameCoordinates,Original*%
%TF.FileFunction,Copper,L1,Top*%
%TF.FilePolarity,Positive*%
%FSLAX46Y46*%
G04 Gerber Fmt 4.6, Leading zero omitted, Abs format (unit mm)*
G04 Created by KiCad (PCBNEW 8.0.4) date 2024-08-25 10:48:18*
%MOMM*%
%LPD*%
G01*
G04 APERTURE LIST*
%TA.AperFunction,SMDPad,CuDef*%
%ADD10R,1.600000X3.200000*%
%TD*%
%TA.AperFunction,SMDPad,CuDef*%
%ADD11R,3.200000X1.600000*%
%TD*%
%TA.AperFunction,ComponentPad*%
%ADD12O,1.600000X1.200000*%
%TD*%
%TA.AperFunction,ViaPad*%
%ADD13C,0.800000*%
%TD*%
%TA.AperFunction,Conductor*%
%ADD14C,0.250000*%
%TD*%
G04 APERTURE END LIST*
D10*
%TO.P,RZ1,1,GP0*%
%TO.N,Net-(RZ1-GP0)*%
X2565000Y-123000000D03*
%TO.P,RZ1,2,GP1*%
%TO.N,Net-(RZ1-GP1)*%
X5105000Y-123000000D03*
%TO.P,RZ1,3,GP2*%
%TO.N,Net-(RZ1-GP2)*%
X7645000Y-123000000D03*
%TO.P,RZ1,4,GP3*%
%TO.N,Net-(RZ1-GP3)*%
X10185000Y-123000000D03*
%TO.P,RZ1,5,GP4*%
%TO.N,Net-(RZ1-GP4)*%
X12725000Y-123000000D03*
%TO.P,RZ1,6,GP5*%
%TO.N,Net-(RZ1-GP5)*%
X15265000Y-123000000D03*
%TO.P,RZ1,7,GP6*%
%TO.N,Net-(RZ1-GP6)*%
X17805000Y-123000000D03*
%TO.P,RZ1,8,GP7*%
%TO.N,Net-(RZ1-GP7)*%
X20345000Y-123000000D03*
%TO.P,RZ1,9,GP8*%
%TO.N,Net-(RZ1-GP8)*%
X22885000Y-123000000D03*
D11*
%TO.P,RZ1,10,GP9*%
%TO.N,Net-(RZ1-GP9)*%
X24475000Y-126920000D03*
%TO.P,RZ1,11,GP10*%
%TO.N,Net-(RZ1-GP10)*%
X24475000Y-129460000D03*
%TO.P,RZ1,12,GP11*%
%TO.N,Net-(RZ1-GP11)*%
X24475000Y-132000000D03*
%TO.P,RZ1,13,GP12*%
%TO.N,Net-(RZ1-GP12)*%
X24475000Y-134540000D03*
%TO.P,RZ1,14,GP13*%
%TO.N,Net-(RZ1-GP13)*%
X24475000Y-137080000D03*
D10*
%TO.P,RZ1,15,GP14*%
%TO.N,Net-(RZ1-GP14)*%
X22885000Y-141000000D03*
%TO.P,RZ1,16,GP15*%
%TO.N,Net-(RZ1-GP15)*%
X20345000Y-141000000D03*
%TO.P,RZ1,17,GP26*%
%TO.N,Net-(RZ1-GP26)*%
X17805000Y-141000000D03*
%TO.P,RZ1,18,GP27*%
%TO.N,Net-(RZ1-GP27)*%
X15265000Y-141000000D03*
%TO.P,RZ1,19,GP28*%
%TO.N,unconnected-(RZ1-GP28-Pad19)*%
X12725000Y-141000000D03*
%TO.P,RZ1,20,GP29*%
%TO.N,unconnected-(RZ1-GP29-Pad20)*%
X10185000Y-141000000D03*
%TO.P,RZ1,21,3V3*%
%TO.N,unconnected-(RZ1-3V3-Pad21)*%
X7645000Y-141000000D03*
%TO.P,RZ1,22,5V*%
%TO.N,unconnected-(RZ1-5V-Pad22)*%
X2565000Y-141000000D03*
%TO.P,RZ1,23,GND*%
%TO.N,Net-(RZ1-GND)*%
X5105000Y-141000000D03*
%TD*%
D12*
%TO.P,B1(A)1,1,1*%
%TO.N,Net-(RZ1-GND)*%
X150500000Y-89200000D03*
%TO.P,B1(A)1,2,2*%
%TO.N,Net-(RZ1-GP6)*%
X155500000Y-91400000D03*
%TO.P,B1(A)1,MP*%
%TO.N,N/C*%
X160500000Y-80000000D03*
%TD*%
%TO.P,LEFT1,1,1*%
%TO.N,Net-(RZ1-GND)*%
X39500000Y-57200000D03*
%TO.P,LEFT1,2,2*%
%TO.N,Net-(RZ1-GP5)*%
X44500000Y-59400000D03*
%TO.P,LEFT1,MP*%
%TO.N,N/C*%
X49500000Y-48000000D03*
%TD*%
%TO.P,RIGHT1,1,1*%
%TO.N,Net-(RZ1-GND)*%
X95500000Y-72200000D03*
%TO.P,RIGHT1,2,2*%
%TO.N,Net-(RZ1-GP4)*%
X100500000Y-74400000D03*
%TO.P,RIGHT1,MP*%
%TO.N,N/C*%
X105500000Y-63000000D03*
%TD*%
%TO.P,L1(L)1,1,1*%
%TO.N,Net-(RZ1-GP13)*%
X205500000Y-78200000D03*
%TO.P,L1(L)1,2,2*%
%TO.N,Net-(RZ1-GND)*%
X210500000Y-80400000D03*
%TO.P,L1(L)1,MP*%
%TO.N,N/C*%
X215500000Y-69000000D03*
%TD*%
%TO.P,B2(B)1,1,1*%
%TO.N,Net-(RZ1-GND)*%
X177500000Y-77200000D03*
%TO.P,B2(B)1,2,2*%
%TO.N,Net-(RZ1-GP7)*%
X182500000Y-79400000D03*
%TO.P,B2(B)1,MP*%
%TO.N,N/C*%
X187500000Y-68000000D03*
%TD*%
%TO.P,S2(START)1,1,1*%
%TO.N,Net-(RZ1-GND)*%
X89500000Y-21200000D03*
%TO.P,S2(START)1,2,2*%
%TO.N,Net-(RZ1-GP1)*%
X94500000Y-23400000D03*
%TO.P,S2(START)1,MP*%
%TO.N,N/C*%
X99500000Y-12000000D03*
%TD*%
%TO.P,L2(LB)1,1,1*%
%TO.N,Net-(RZ1-GND)*%
X208510000Y-49200000D03*
%TO.P,L2(LB)1,2,2*%
%TO.N,Net-(RZ1-GP9)*%
X213510000Y-51400000D03*
%TO.P,L2(LB)1,MP*%
%TO.N,N/C*%
X218510000Y-40000000D03*
%TD*%
%TO.P,DOWN1,1,1*%
%TO.N,Net-(RZ1-GND)*%
X69500000Y-57200000D03*
%TO.P,DOWN1,2,2*%
%TO.N,Net-(RZ1-GP3)*%
X74500000Y-59400000D03*
%TO.P,DOWN1,MP*%
%TO.N,N/C*%
X79500000Y-48000000D03*
%TD*%
%TO.P,S1(BACK)1,1,1*%
%TO.N,Net-(RZ1-GND)*%
X81500000Y-118700000D03*
%TO.P,S1(BACK)1,2,2*%
%TO.N,Net-(RZ1-GP0)*%
X86500000Y-120900000D03*
%TO.P,S1(BACK)1,MP*%
%TO.N,N/C*%
X91500000Y-109500000D03*
%TD*%
%TO.P,A2(CAPTURE)1,1,1*%
%TO.N,Net-(RZ1-GP15)*%
X50500000Y-21200000D03*
%TO.P,A2(CAPTURE)1,2,2*%
%TO.N,Net-(RZ1-GND)*%
X55500000Y-23400000D03*
%TO.P,A2(CAPTURE)1,MP*%
%TO.N,N/C*%
X60500000Y-12000000D03*
%TD*%
%TO.P,B4(Y)1,1,1*%
%TO.N,Net-(RZ1-GP11)*%
X180500000Y-48200000D03*
%TO.P,B4(Y)1,2,2*%
%TO.N,Net-(RZ1-GND)*%
X185500000Y-50400000D03*
%TO.P,B4(Y)1,MP*%
%TO.N,N/C*%
X190500000Y-39000000D03*
%TD*%
%TO.P,UP1,1,1*%
%TO.N,Net-(RZ1-GND)*%
X110500000Y-123700000D03*
%TO.P,UP1,2,2*%
%TO.N,Net-(RZ1-GP2)*%
X115500000Y-125900000D03*
%TO.P,UP1,MP*%
%TO.N,N/C*%
X120500000Y-114500000D03*
%TD*%
%TO.P,R3(RS)1,1,1*%
%TO.N,Net-(RZ1-GP27)*%
X172500000Y-118700000D03*
%TO.P,R3(RS)1,2,2*%
%TO.N,Net-(RZ1-GND)*%
X177500000Y-120900000D03*
%TO.P,R3(RS)1,MP*%
%TO.N,N/C*%
X182500000Y-109500000D03*
%TD*%
%TO.P,R1(R)1,1,1*%
%TO.N,Net-(RZ1-GP12)*%
X158500000Y-31200000D03*
%TO.P,R1(R)1,2,2*%
%TO.N,Net-(RZ1-GND)*%
X163500000Y-33400000D03*
%TO.P,R1(R)1,MP*%
%TO.N,N/C*%
X168500000Y-22000000D03*
%TD*%
%TO.P,A1(GUIDE)1,1,1*%
%TO.N,Net-(RZ1-GP14)*%
X70000000Y-21200000D03*
%TO.P,A1(GUIDE)1,2,2*%
%TO.N,Net-(RZ1-GND)*%
X75000000Y-23400000D03*
%TO.P,A1(GUIDE)1,MP*%
%TO.N,N/C*%
X80000000Y-12000000D03*
%TD*%
%TO.P,L3(LS)1,1,1*%
%TO.N,Net-(RZ1-GP26)*%
X146500000Y-123200000D03*
%TO.P,L3(LS)1,2,2*%
%TO.N,Net-(RZ1-GND)*%
X151500000Y-125400000D03*
%TO.P,L3(LS)1,MP*%
%TO.N,N/C*%
X156500000Y-114000000D03*
%TD*%
%TO.P,R2(RB)1,1,1*%
%TO.N,Net-(RZ1-GND)*%
X235500000Y-54200000D03*
%TO.P,R2(RB)1,2,2*%
%TO.N,Net-(RZ1-GP8)*%
X240500000Y-56400000D03*
%TO.P,R2(RB)1,MP*%
%TO.N,N/C*%
X245500000Y-45000000D03*
%TD*%
%TO.P,B3(X)1,1,1*%
%TO.N,Net-(RZ1-GP10)*%
X154500000Y-60200000D03*
%TO.P,B3(X)1,2,2*%
%TO.N,Net-(RZ1-GND)*%
X159500000Y-62400000D03*
%TO.P,B3(X)1,MP*%
%TO.N,N/C*%
X164500000Y-51000000D03*
%TD*%
D13*
%TO.N,Net-(RZ1-GP14)*%
X31000000Y-144500000D03*
%TO.N,Net-(RZ1-GND)*%
X192500000Y-152500000D03*
X60000000Y-38000000D03*
%TO.N,Net-(RZ1-GP15)*%
X28500000Y-147000000D03*
%TO.N,Net-(RZ1-GP10)*%
X67500000Y-129500000D03*
%TO.N,Net-(RZ1-GP11)*%
X228000000Y-144000000D03*
%TO.N,Net-(RZ1-GP3)*%
X60500000Y-111500000D03*
%TO.N,Net-(RZ1-GP13)*%
X205500000Y-147000000D03*
%TO.N,Net-(RZ1-GP9)*%
X229500000Y-142500000D03*
%TO.N,Net-(RZ1-GP26)*%
X146500000Y-148500000D03*
%TO.N,Net-(RZ1-GP5)*%
X44500000Y-115000000D03*
%TO.N,Net-(RZ1-GP27)*%
X172500000Y-150000000D03*
%TO.N,Net-(RZ1-GP4)*%
X64500000Y-113500000D03*
%TO.N,Net-(RZ1-GP0)*%
X100000000Y-94500000D03*
%TO.N,Net-(RZ1-GP1)*%
X58500000Y-107000000D03*
%TD*%
D14*
%TO.N,Net-(RZ1-GP14)*%
X23000000Y-144500000D02*
X22885000Y-144385000D01*
X22885000Y-144385000D02*
X22885000Y-141000000D01*
X31000000Y-144500000D02*
X23000000Y-144500000D01*
%TO.N,Net-(RZ1-GND)*%
X192500000Y-152500000D02*
X12500000Y-152500000D01*
X39500000Y-57200000D02*
X48800000Y-66500000D01*
X69500000Y-57200000D02*
X69500000Y-69000000D01*
X60000000Y-59550000D02*
X60050000Y-59550000D01*
X5105000Y-145105000D02*
X5105000Y-141000000D01*
X48800000Y-66500000D02*
X67000000Y-66500000D01*
X67000000Y-66500000D02*
X72700000Y-72200000D01*
X60050000Y-59550000D02*
X67000000Y-66500000D01*
X60000000Y-59550000D02*
X60000000Y-38000000D01*
X12500000Y-152500000D02*
X5105000Y-145105000D01*
X72700000Y-72200000D02*
X95500000Y-72200000D01*
%TO.N,Net-(RZ1-GP15)*%
X28500000Y-147000000D02*
X22000000Y-147000000D01*
X22000000Y-147000000D02*
X20345000Y-145345000D01*
X20345000Y-145345000D02*
X20345000Y-141000000D01*
%TO.N,Net-(RZ1-GP6)*%
X17805000Y-119695000D02*
X20500000Y-117000000D01*
X195500000Y-133000000D02*
X195500000Y-92500000D01*
X189500000Y-139000000D02*
X195500000Y-133000000D01*
X157030000Y-91400000D02*
X155500000Y-91400000D01*
X88500000Y-139000000D02*
X189500000Y-139000000D01*
X191800000Y-88800000D02*
X159630000Y-88800000D01*
X20500000Y-117000000D02*
X66500000Y-117000000D01*
X159630000Y-88800000D02*
X157030000Y-91400000D01*
X17805000Y-123000000D02*
X17805000Y-119695000D01*
X195500000Y-92500000D02*
X191800000Y-88800000D01*
X66500000Y-117000000D02*
X88500000Y-139000000D01*
%TO.N,Net-(RZ1-GP7)*%
X190000000Y-140000000D02*
X197000000Y-133000000D01*
X20345000Y-123000000D02*
X20345000Y-119655000D01*
X88000000Y-140000000D02*
X190000000Y-140000000D01*
X20345000Y-119655000D02*
X21500000Y-118500000D01*
X21500000Y-118500000D02*
X66500000Y-118500000D01*
X197000000Y-82000000D02*
X194400000Y-79400000D01*
X66500000Y-118500000D02*
X88000000Y-140000000D01*
X194400000Y-79400000D02*
X182500000Y-79400000D01*
X197000000Y-133000000D02*
X197000000Y-82000000D01*
%TO.N,Net-(RZ1-GP10)*%
X24475000Y-129460000D02*
X67460000Y-129460000D01*
X67460000Y-129460000D02*
X67500000Y-129500000D01*
%TO.N,Net-(RZ1-GP11)*%
X74500000Y-144000000D02*
X62500000Y-132000000D01*
X228000000Y-144000000D02*
X74500000Y-144000000D01*
X62500000Y-132000000D02*
X24475000Y-132000000D01*
%TO.N,Net-(RZ1-GP3)*%
X18250000Y-111500000D02*
X10185000Y-119565000D01*
X10185000Y-119565000D02*
X10185000Y-123000000D01*
X60500000Y-111500000D02*
X18250000Y-111500000D01*
%TO.N,Net-(RZ1-GP13)*%
X62580000Y-137080000D02*
X24475000Y-137080000D01*
X72500000Y-147000000D02*
X62580000Y-137080000D01*
X205500000Y-147000000D02*
X72500000Y-147000000D01*
%TO.N,Net-(RZ1-GP9)*%
X68420000Y-126920000D02*
X24475000Y-126920000D01*
X229500000Y-142500000D02*
X84000000Y-142500000D01*
X84000000Y-142500000D02*
X68420000Y-126920000D01*
%TO.N,Net-(RZ1-GP26)*%
X146500000Y-148500000D02*
X21000000Y-148500000D01*
X17805000Y-145305000D02*
X17805000Y-141000000D01*
X21000000Y-148500000D02*
X17805000Y-145305000D01*
%TO.N,Net-(RZ1-GP5)*%
X44500000Y-115000000D02*
X20000000Y-115000000D01*
X20000000Y-115000000D02*
X15265000Y-119735000D01*
X15265000Y-119735000D02*
X15265000Y-123000000D01*
%TO.N,Net-(RZ1-GP12)*%
X151000000Y-15500000D02*
X151000000Y-24000000D01*
X62540000Y-134540000D02*
X73500000Y-145500000D01*
X246000000Y-134500000D02*
X246000000Y-72500000D01*
X73500000Y-145500000D02*
X235000000Y-145500000D01*
X254500000Y-64000000D02*
X254500000Y-39000000D01*
X235000000Y-145500000D02*
X246000000Y-134500000D01*
X24475000Y-134540000D02*
X62540000Y-134540000D01*
X246000000Y-72500000D02*
X254500000Y-64000000D01*
X254500000Y-39000000D02*
X227000000Y-11500000D01*
X155000000Y-11500000D02*
X151000000Y-15500000D01*
X151000000Y-24000000D02*
X158200000Y-31200000D01*
X227000000Y-11500000D02*
X155000000Y-11500000D01*
X158200000Y-31200000D02*
X158500000Y-31200000D01*
%TO.N,Net-(RZ1-GP8)*%
X240500000Y-134000000D02*
X240500000Y-56400000D01*
X23500000Y-120000000D02*
X66500000Y-120000000D01*
X233500000Y-141000000D02*
X240500000Y-134000000D01*
X22885000Y-120615000D02*
X23500000Y-120000000D01*
X66500000Y-120000000D02*
X87500000Y-141000000D01*
X87500000Y-141000000D02*
X233500000Y-141000000D01*
X22885000Y-123000000D02*
X22885000Y-120615000D01*
%TO.N,Net-(RZ1-GP27)*%
X20000000Y-150000000D02*
X15265000Y-145265000D01*
X172500000Y-150000000D02*
X20000000Y-150000000D01*
X15265000Y-145265000D02*
X15265000Y-141000000D01*
%TO.N,Net-(RZ1-GP4)*%
X19000000Y-113500000D02*
X12725000Y-119775000D01*
X64500000Y-113500000D02*
X19000000Y-113500000D01*
X12725000Y-119775000D02*
X12725000Y-123000000D01*
%TO.N,Net-(RZ1-GP0)*%
X13000000Y-105000000D02*
X2565000Y-115435000D01*
X2565000Y-115435000D02*
X2565000Y-123000000D01*
X100000000Y-94500000D02*
X82500000Y-94500000D01*
X72000000Y-105000000D02*
X13000000Y-105000000D01*
X82500000Y-94500000D02*
X72000000Y-105000000D01*
%TO.N,Net-(RZ1-GP1)*%
X58500000Y-107000000D02*
X15000000Y-107000000D01*
X5105000Y-116895000D02*
X5105000Y-123000000D01*
X15000000Y-107000000D02*
X5105000Y-116895000D01*
%TO.N,Net-(RZ1-GP2)*%
X132500000Y-119000000D02*
X125600000Y-125900000D01*
X72000000Y-109500000D02*
X82500000Y-99000000D01*
X7645000Y-118355000D02*
X16500000Y-109500000D01*
X125600000Y-125900000D02*
X115500000Y-125900000D01*
X132500000Y-108000000D02*
X132500000Y-119000000D01*
X82500000Y-99000000D02*
X123500000Y-99000000D01*
X123500000Y-99000000D02*
X132500000Y-108000000D01*
X7645000Y-123000000D02*
X7645000Y-118355000D01*
X16500000Y-109500000D02*
X72000000Y-109500000D01*
%TD*%
M02*
