M48
; DRILL file {KiCad 8.0.4} date 2024-08-31T11:22:48+0900
; FORMAT={-:-/ absolute / inch / decimal}
; #@! TF.CreationDate,2024-08-31T11:22:48+09:00
; #@! TF.GenerationSoftware,Kicad,Pcbnew,8.0.4
; #@! TF.FileFunction,Plated,1,2,PTH
FMAT,2
INCH
; #@! TA.AperFunction,Plated,PTH,ViaDrill
T1C0.0157
; #@! TA.AperFunction,Plated,PTH,ComponentDrill
T2C0.0315
%
G90
G05
T1
X1.122Y-5.7874
X1.752Y-4.5276
X2.2441Y-4.1339
X2.3031Y-4.2126
X2.3622Y-1.4961
X2.3819Y-4.3898
X2.5394Y-4.4685
X2.6575Y-5.0984
X2.7559Y-5.689
X5.7677Y-5.8465
X6.7913Y-5.9055
X7.5787Y-6.0039
X8.0906Y-5.7874
X8.9764Y-5.6693
X9.0354Y-5.6102
T2
G00X1.5472Y-2.252
M15
G01X1.563Y-2.252
M16
G05
G00X1.7441Y-2.3386
M15
G01X1.7598Y-2.3386
M16
G05
G00X1.9409Y-1.8898
M15
G01X1.9567Y-1.8898
M16
G05
G00X1.9803Y-0.8346
M15
G01X1.9961Y-0.8346
M16
G05
G00X2.1772Y-0.9213
M15
G01X2.1929Y-0.9213
M16
G05
G00X2.374Y-0.4724
M15
G01X2.3898Y-0.4724
M16
G05
G00X2.7283Y-2.252
M15
G01X2.7441Y-2.252
M16
G05
G00X2.748Y-0.8346
M15
G01X2.7638Y-0.8346
M16
G05
G00X2.9252Y-2.3386
M15
G01X2.9409Y-2.3386
M16
G05
G00X2.9449Y-0.9213
M15
G01X2.9606Y-0.9213
M16
G05
G00X3.122Y-1.8898
M15
G01X3.1378Y-1.8898
M16
G05
G00X3.1417Y-0.4724
M15
G01X3.1575Y-0.4724
M16
G05
G00X3.2008Y-4.6732
M15
G01X3.2165Y-4.6732
M16
G05
G00X3.3976Y-4.7598
M15
G01X3.4134Y-4.7598
M16
G05
G00X3.5157Y-0.8346
M15
G01X3.5315Y-0.8346
M16
G05
G00X3.5945Y-4.311
M15
G01X3.6102Y-4.311
M16
G05
G00X3.7126Y-0.9213
M15
G01X3.7283Y-0.9213
M16
G05
G00X3.752Y-2.8425
M15
G01X3.7677Y-2.8425
M16
G05
G00X3.9094Y-0.4724
M15
G01X3.9252Y-0.4724
M16
G05
G00X3.9488Y-2.9291
M15
G01X3.9646Y-2.9291
M16
G05
G00X4.1457Y-2.4803
M15
G01X4.1614Y-2.4803
M16
G05
G00X4.3425Y-4.8701
M15
G01X4.3583Y-4.8701
M16
G05
G00X4.5394Y-4.9567
M15
G01X4.5551Y-4.9567
M16
G05
G00X4.7362Y-4.5079
M15
G01X4.752Y-4.5079
M16
G05
G00X5.7598Y-4.8504
M15
G01X5.7756Y-4.8504
M16
G05
G00X5.9173Y-3.5118
M15
G01X5.9331Y-3.5118
M16
G05
G00X5.9567Y-4.937
M15
G01X5.9724Y-4.937
M16
G05
G00X6.0748Y-2.3701
M15
G01X6.0906Y-2.3701
M16
G05
G00X6.1142Y-3.5984
M15
G01X6.1299Y-3.5984
M16
G05
G00X6.1535Y-4.4882
M15
G01X6.1693Y-4.4882
M16
G05
G00X6.2323Y-1.2283
M15
G01X6.248Y-1.2283
M16
G05
G00X6.2717Y-2.4567
M15
G01X6.2874Y-2.4567
M16
G05
G00X6.311Y-3.1496
M15
G01X6.3268Y-3.1496
M16
G05
G00X6.4291Y-1.315
M15
G01X6.4449Y-1.315
M16
G05
G00X6.4685Y-2.0079
M15
G01X6.4843Y-2.0079
M16
G05
G00X6.626Y-0.8661
M15
G01X6.6417Y-0.8661
M16
G05
G00X6.7835Y-4.6732
M15
G01X6.7992Y-4.6732
M16
G05
G00X6.9803Y-3.0394
M15
G01X6.9961Y-3.0394
M16
G05
G00X6.9803Y-4.7598
M15
G01X6.9961Y-4.7598
M16
G05
G00X7.0984Y-1.8976
M15
G01X7.1142Y-1.8976
M16
G05
G00X7.1772Y-3.126
M15
G01X7.1929Y-3.126
M16
G05
G00X7.1772Y-4.311
M15
G01X7.1929Y-4.311
M16
G05
G00X7.2953Y-1.9843
M15
G01X7.311Y-1.9843
M16
G05
G00X7.374Y-2.6772
M15
G01X7.3898Y-2.6772
M16
G05
G00X7.4921Y-1.5354
M15
G01X7.5079Y-1.5354
M16
G05
G00X8.0827Y-3.0787
M15
G01X8.0984Y-3.0787
M16
G05
G00X8.2012Y-1.937
M15
G01X8.2169Y-1.937
M16
G05
G00X8.2795Y-3.1654
M15
G01X8.2953Y-3.1654
M16
G05
G00X8.398Y-2.0236
M15
G01X8.4138Y-2.0236
M16
G05
G00X8.4764Y-2.7165
M15
G01X8.4921Y-2.7165
M16
G05
G00X8.5949Y-1.5748
M15
G01X8.6106Y-1.5748
M16
G05
G00X9.2638Y-2.1339
M15
G01X9.2795Y-2.1339
M16
G05
G00X9.4606Y-2.2205
M15
G01X9.4764Y-2.2205
M16
G05
G00X9.6575Y-1.7717
M15
G01X9.6732Y-1.7717
M16
G05
M30
