%TF.GenerationSoftware,KiCad,Pcbnew,8.0.4*%
%TF.CreationDate,2024-09-01T11:28:24+09:00*%
%TF.ProjectId,nzx,6e7a782e-6b69-4636-9164-5f7063625858,rev?*%
%TF.SameCoordinates,Original*%
%TF.FileFunction,Legend,Top*%
%TF.FilePolarity,Positive*%
%FSLAX46Y46*%
G04 Gerber Fmt 4.6, Leading zero omitted, Abs format (unit mm)*
G04 Created by KiCad (PCBNEW 8.0.4) date 2024-09-01 11:28:24*
%MOMM*%
%LPD*%
G01*
G04 APERTURE LIST*
%ADD10C,0.250000*%
%ADD11C,0.100000*%
G04 APERTURE END LIST*
D10*
X163259711Y-161181047D02*
X163259711Y-158681047D01*
X164331139Y-161181047D02*
X164331139Y-159871523D01*
X164331139Y-159871523D02*
X164212092Y-159633428D01*
X164212092Y-159633428D02*
X163973996Y-159514380D01*
X163973996Y-159514380D02*
X163616853Y-159514380D01*
X163616853Y-159514380D02*
X163378758Y-159633428D01*
X163378758Y-159633428D02*
X163259711Y-159752476D01*
X165164473Y-159514380D02*
X166116854Y-159514380D01*
X165521616Y-158681047D02*
X165521616Y-160823904D01*
X165521616Y-160823904D02*
X165640663Y-161062000D01*
X165640663Y-161062000D02*
X165878758Y-161181047D01*
X165878758Y-161181047D02*
X166116854Y-161181047D01*
X166593044Y-159514380D02*
X167545425Y-159514380D01*
X166950187Y-158681047D02*
X166950187Y-160823904D01*
X166950187Y-160823904D02*
X167069234Y-161062000D01*
X167069234Y-161062000D02*
X167307329Y-161181047D01*
X167307329Y-161181047D02*
X167545425Y-161181047D01*
X168378758Y-159514380D02*
X168378758Y-162014380D01*
X168378758Y-159633428D02*
X168616853Y-159514380D01*
X168616853Y-159514380D02*
X169093043Y-159514380D01*
X169093043Y-159514380D02*
X169331139Y-159633428D01*
X169331139Y-159633428D02*
X169450186Y-159752476D01*
X169450186Y-159752476D02*
X169569234Y-159990571D01*
X169569234Y-159990571D02*
X169569234Y-160704857D01*
X169569234Y-160704857D02*
X169450186Y-160942952D01*
X169450186Y-160942952D02*
X169331139Y-161062000D01*
X169331139Y-161062000D02*
X169093043Y-161181047D01*
X169093043Y-161181047D02*
X168616853Y-161181047D01*
X168616853Y-161181047D02*
X168378758Y-161062000D01*
X170521615Y-161062000D02*
X170759710Y-161181047D01*
X170759710Y-161181047D02*
X171235901Y-161181047D01*
X171235901Y-161181047D02*
X171473996Y-161062000D01*
X171473996Y-161062000D02*
X171593044Y-160823904D01*
X171593044Y-160823904D02*
X171593044Y-160704857D01*
X171593044Y-160704857D02*
X171473996Y-160466761D01*
X171473996Y-160466761D02*
X171235901Y-160347714D01*
X171235901Y-160347714D02*
X170878758Y-160347714D01*
X170878758Y-160347714D02*
X170640663Y-160228666D01*
X170640663Y-160228666D02*
X170521615Y-159990571D01*
X170521615Y-159990571D02*
X170521615Y-159871523D01*
X170521615Y-159871523D02*
X170640663Y-159633428D01*
X170640663Y-159633428D02*
X170878758Y-159514380D01*
X170878758Y-159514380D02*
X171235901Y-159514380D01*
X171235901Y-159514380D02*
X171473996Y-159633428D01*
X172664473Y-160942952D02*
X172783520Y-161062000D01*
X172783520Y-161062000D02*
X172664473Y-161181047D01*
X172664473Y-161181047D02*
X172545425Y-161062000D01*
X172545425Y-161062000D02*
X172664473Y-160942952D01*
X172664473Y-160942952D02*
X172664473Y-161181047D01*
X172664473Y-159633428D02*
X172783520Y-159752476D01*
X172783520Y-159752476D02*
X172664473Y-159871523D01*
X172664473Y-159871523D02*
X172545425Y-159752476D01*
X172545425Y-159752476D02*
X172664473Y-159633428D01*
X172664473Y-159633428D02*
X172664473Y-159871523D01*
X175640663Y-158562000D02*
X173497806Y-161776285D01*
X178259711Y-158562000D02*
X176116854Y-161776285D01*
X180164473Y-159514380D02*
X180164473Y-161538190D01*
X180164473Y-161538190D02*
X180045426Y-161776285D01*
X180045426Y-161776285D02*
X179926378Y-161895333D01*
X179926378Y-161895333D02*
X179688283Y-162014380D01*
X179688283Y-162014380D02*
X179331140Y-162014380D01*
X179331140Y-162014380D02*
X179093045Y-161895333D01*
X180164473Y-161062000D02*
X179926378Y-161181047D01*
X179926378Y-161181047D02*
X179450187Y-161181047D01*
X179450187Y-161181047D02*
X179212092Y-161062000D01*
X179212092Y-161062000D02*
X179093045Y-160942952D01*
X179093045Y-160942952D02*
X178973997Y-160704857D01*
X178973997Y-160704857D02*
X178973997Y-159990571D01*
X178973997Y-159990571D02*
X179093045Y-159752476D01*
X179093045Y-159752476D02*
X179212092Y-159633428D01*
X179212092Y-159633428D02*
X179450187Y-159514380D01*
X179450187Y-159514380D02*
X179926378Y-159514380D01*
X179926378Y-159514380D02*
X180164473Y-159633428D01*
X181354950Y-161181047D02*
X181354950Y-159514380D01*
X181354950Y-158681047D02*
X181235902Y-158800095D01*
X181235902Y-158800095D02*
X181354950Y-158919142D01*
X181354950Y-158919142D02*
X181473997Y-158800095D01*
X181473997Y-158800095D02*
X181354950Y-158681047D01*
X181354950Y-158681047D02*
X181354950Y-158919142D01*
X182188283Y-159514380D02*
X183140664Y-159514380D01*
X182545426Y-158681047D02*
X182545426Y-160823904D01*
X182545426Y-160823904D02*
X182664473Y-161062000D01*
X182664473Y-161062000D02*
X182902568Y-161181047D01*
X182902568Y-161181047D02*
X183140664Y-161181047D01*
X183973997Y-161181047D02*
X183973997Y-158681047D01*
X185045425Y-161181047D02*
X185045425Y-159871523D01*
X185045425Y-159871523D02*
X184926378Y-159633428D01*
X184926378Y-159633428D02*
X184688282Y-159514380D01*
X184688282Y-159514380D02*
X184331139Y-159514380D01*
X184331139Y-159514380D02*
X184093044Y-159633428D01*
X184093044Y-159633428D02*
X183973997Y-159752476D01*
X187307330Y-159514380D02*
X187307330Y-161181047D01*
X186235902Y-159514380D02*
X186235902Y-160823904D01*
X186235902Y-160823904D02*
X186354949Y-161062000D01*
X186354949Y-161062000D02*
X186593044Y-161181047D01*
X186593044Y-161181047D02*
X186950187Y-161181047D01*
X186950187Y-161181047D02*
X187188283Y-161062000D01*
X187188283Y-161062000D02*
X187307330Y-160942952D01*
X188497807Y-161181047D02*
X188497807Y-158681047D01*
X188497807Y-159633428D02*
X188735902Y-159514380D01*
X188735902Y-159514380D02*
X189212092Y-159514380D01*
X189212092Y-159514380D02*
X189450188Y-159633428D01*
X189450188Y-159633428D02*
X189569235Y-159752476D01*
X189569235Y-159752476D02*
X189688283Y-159990571D01*
X189688283Y-159990571D02*
X189688283Y-160704857D01*
X189688283Y-160704857D02*
X189569235Y-160942952D01*
X189569235Y-160942952D02*
X189450188Y-161062000D01*
X189450188Y-161062000D02*
X189212092Y-161181047D01*
X189212092Y-161181047D02*
X188735902Y-161181047D01*
X188735902Y-161181047D02*
X188497807Y-161062000D01*
X190759712Y-160942952D02*
X190878759Y-161062000D01*
X190878759Y-161062000D02*
X190759712Y-161181047D01*
X190759712Y-161181047D02*
X190640664Y-161062000D01*
X190640664Y-161062000D02*
X190759712Y-160942952D01*
X190759712Y-160942952D02*
X190759712Y-161181047D01*
X193021616Y-161062000D02*
X192783521Y-161181047D01*
X192783521Y-161181047D02*
X192307330Y-161181047D01*
X192307330Y-161181047D02*
X192069235Y-161062000D01*
X192069235Y-161062000D02*
X191950188Y-160942952D01*
X191950188Y-160942952D02*
X191831140Y-160704857D01*
X191831140Y-160704857D02*
X191831140Y-159990571D01*
X191831140Y-159990571D02*
X191950188Y-159752476D01*
X191950188Y-159752476D02*
X192069235Y-159633428D01*
X192069235Y-159633428D02*
X192307330Y-159514380D01*
X192307330Y-159514380D02*
X192783521Y-159514380D01*
X192783521Y-159514380D02*
X193021616Y-159633428D01*
X194450187Y-161181047D02*
X194212092Y-161062000D01*
X194212092Y-161062000D02*
X194093045Y-160942952D01*
X194093045Y-160942952D02*
X193973997Y-160704857D01*
X193973997Y-160704857D02*
X193973997Y-159990571D01*
X193973997Y-159990571D02*
X194093045Y-159752476D01*
X194093045Y-159752476D02*
X194212092Y-159633428D01*
X194212092Y-159633428D02*
X194450187Y-159514380D01*
X194450187Y-159514380D02*
X194807330Y-159514380D01*
X194807330Y-159514380D02*
X195045426Y-159633428D01*
X195045426Y-159633428D02*
X195164473Y-159752476D01*
X195164473Y-159752476D02*
X195283521Y-159990571D01*
X195283521Y-159990571D02*
X195283521Y-160704857D01*
X195283521Y-160704857D02*
X195164473Y-160942952D01*
X195164473Y-160942952D02*
X195045426Y-161062000D01*
X195045426Y-161062000D02*
X194807330Y-161181047D01*
X194807330Y-161181047D02*
X194450187Y-161181047D01*
X196354950Y-161181047D02*
X196354950Y-159514380D01*
X196354950Y-159752476D02*
X196473997Y-159633428D01*
X196473997Y-159633428D02*
X196712092Y-159514380D01*
X196712092Y-159514380D02*
X197069235Y-159514380D01*
X197069235Y-159514380D02*
X197307331Y-159633428D01*
X197307331Y-159633428D02*
X197426378Y-159871523D01*
X197426378Y-159871523D02*
X197426378Y-161181047D01*
X197426378Y-159871523D02*
X197545426Y-159633428D01*
X197545426Y-159633428D02*
X197783521Y-159514380D01*
X197783521Y-159514380D02*
X198140664Y-159514380D01*
X198140664Y-159514380D02*
X198378759Y-159633428D01*
X198378759Y-159633428D02*
X198497807Y-159871523D01*
X198497807Y-159871523D02*
X198497807Y-161181047D01*
X201473997Y-158562000D02*
X199331140Y-161776285D01*
X202307331Y-161181047D02*
X202307331Y-158681047D01*
X202307331Y-158681047D02*
X203735902Y-161181047D01*
X203735902Y-161181047D02*
X203735902Y-158681047D01*
X205878760Y-161062000D02*
X205640664Y-161181047D01*
X205640664Y-161181047D02*
X205164474Y-161181047D01*
X205164474Y-161181047D02*
X204926379Y-161062000D01*
X204926379Y-161062000D02*
X204807331Y-160823904D01*
X204807331Y-160823904D02*
X204807331Y-159871523D01*
X204807331Y-159871523D02*
X204926379Y-159633428D01*
X204926379Y-159633428D02*
X205164474Y-159514380D01*
X205164474Y-159514380D02*
X205640664Y-159514380D01*
X205640664Y-159514380D02*
X205878760Y-159633428D01*
X205878760Y-159633428D02*
X205997807Y-159871523D01*
X205997807Y-159871523D02*
X205997807Y-160109619D01*
X205997807Y-160109619D02*
X204807331Y-160347714D01*
X206831140Y-159514380D02*
X208140664Y-159514380D01*
X208140664Y-159514380D02*
X206831140Y-161181047D01*
X206831140Y-161181047D02*
X208140664Y-161181047D01*
X210164474Y-161181047D02*
X210164474Y-159871523D01*
X210164474Y-159871523D02*
X210045427Y-159633428D01*
X210045427Y-159633428D02*
X209807331Y-159514380D01*
X209807331Y-159514380D02*
X209331141Y-159514380D01*
X209331141Y-159514380D02*
X209093046Y-159633428D01*
X210164474Y-161062000D02*
X209926379Y-161181047D01*
X209926379Y-161181047D02*
X209331141Y-161181047D01*
X209331141Y-161181047D02*
X209093046Y-161062000D01*
X209093046Y-161062000D02*
X208973998Y-160823904D01*
X208973998Y-160823904D02*
X208973998Y-160585809D01*
X208973998Y-160585809D02*
X209093046Y-160347714D01*
X209093046Y-160347714D02*
X209331141Y-160228666D01*
X209331141Y-160228666D02*
X209926379Y-160228666D01*
X209926379Y-160228666D02*
X210164474Y-160109619D01*
X212426379Y-161181047D02*
X212426379Y-159871523D01*
X212426379Y-159871523D02*
X212307332Y-159633428D01*
X212307332Y-159633428D02*
X212069236Y-159514380D01*
X212069236Y-159514380D02*
X211593046Y-159514380D01*
X211593046Y-159514380D02*
X211354951Y-159633428D01*
X212426379Y-161062000D02*
X212188284Y-161181047D01*
X212188284Y-161181047D02*
X211593046Y-161181047D01*
X211593046Y-161181047D02*
X211354951Y-161062000D01*
X211354951Y-161062000D02*
X211235903Y-160823904D01*
X211235903Y-160823904D02*
X211235903Y-160585809D01*
X211235903Y-160585809D02*
X211354951Y-160347714D01*
X211354951Y-160347714D02*
X211593046Y-160228666D01*
X211593046Y-160228666D02*
X212188284Y-160228666D01*
X212188284Y-160228666D02*
X212426379Y-160109619D01*
X214688284Y-161181047D02*
X214688284Y-159871523D01*
X214688284Y-159871523D02*
X214569237Y-159633428D01*
X214569237Y-159633428D02*
X214331141Y-159514380D01*
X214331141Y-159514380D02*
X213854951Y-159514380D01*
X213854951Y-159514380D02*
X213616856Y-159633428D01*
X214688284Y-161062000D02*
X214450189Y-161181047D01*
X214450189Y-161181047D02*
X213854951Y-161181047D01*
X213854951Y-161181047D02*
X213616856Y-161062000D01*
X213616856Y-161062000D02*
X213497808Y-160823904D01*
X213497808Y-160823904D02*
X213497808Y-160585809D01*
X213497808Y-160585809D02*
X213616856Y-160347714D01*
X213616856Y-160347714D02*
X213854951Y-160228666D01*
X213854951Y-160228666D02*
X214450189Y-160228666D01*
X214450189Y-160228666D02*
X214688284Y-160109619D01*
X215640665Y-161181047D02*
X216950189Y-159514380D01*
X215640665Y-159514380D02*
X216950189Y-161181047D01*
X219688285Y-158562000D02*
X217545428Y-161776285D01*
X209807330Y-60119857D02*
X208378758Y-60119857D01*
X208378758Y-60119857D02*
X208378758Y-57119857D01*
X211807329Y-58548428D02*
X212235901Y-58691285D01*
X212235901Y-58691285D02*
X212378758Y-58834142D01*
X212378758Y-58834142D02*
X212521615Y-59119857D01*
X212521615Y-59119857D02*
X212521615Y-59548428D01*
X212521615Y-59548428D02*
X212378758Y-59834142D01*
X212378758Y-59834142D02*
X212235901Y-59977000D01*
X212235901Y-59977000D02*
X211950186Y-60119857D01*
X211950186Y-60119857D02*
X210807329Y-60119857D01*
X210807329Y-60119857D02*
X210807329Y-57119857D01*
X210807329Y-57119857D02*
X211807329Y-57119857D01*
X211807329Y-57119857D02*
X212093044Y-57262714D01*
X212093044Y-57262714D02*
X212235901Y-57405571D01*
X212235901Y-57405571D02*
X212378758Y-57691285D01*
X212378758Y-57691285D02*
X212378758Y-57977000D01*
X212378758Y-57977000D02*
X212235901Y-58262714D01*
X212235901Y-58262714D02*
X212093044Y-58405571D01*
X212093044Y-58405571D02*
X211807329Y-58548428D01*
X211807329Y-58548428D02*
X210807329Y-58548428D01*
X178878758Y-86548428D02*
X179307330Y-86691285D01*
X179307330Y-86691285D02*
X179450187Y-86834142D01*
X179450187Y-86834142D02*
X179593044Y-87119857D01*
X179593044Y-87119857D02*
X179593044Y-87548428D01*
X179593044Y-87548428D02*
X179450187Y-87834142D01*
X179450187Y-87834142D02*
X179307330Y-87977000D01*
X179307330Y-87977000D02*
X179021615Y-88119857D01*
X179021615Y-88119857D02*
X177878758Y-88119857D01*
X177878758Y-88119857D02*
X177878758Y-85119857D01*
X177878758Y-85119857D02*
X178878758Y-85119857D01*
X178878758Y-85119857D02*
X179164473Y-85262714D01*
X179164473Y-85262714D02*
X179307330Y-85405571D01*
X179307330Y-85405571D02*
X179450187Y-85691285D01*
X179450187Y-85691285D02*
X179450187Y-85977000D01*
X179450187Y-85977000D02*
X179307330Y-86262714D01*
X179307330Y-86262714D02*
X179164473Y-86405571D01*
X179164473Y-86405571D02*
X178878758Y-86548428D01*
X178878758Y-86548428D02*
X177878758Y-86548428D01*
X154093044Y-68119857D02*
X156093044Y-71119857D01*
X156093044Y-68119857D02*
X154093044Y-71119857D01*
X71735901Y-28977000D02*
X72164473Y-29119857D01*
X72164473Y-29119857D02*
X72878758Y-29119857D01*
X72878758Y-29119857D02*
X73164473Y-28977000D01*
X73164473Y-28977000D02*
X73307330Y-28834142D01*
X73307330Y-28834142D02*
X73450187Y-28548428D01*
X73450187Y-28548428D02*
X73450187Y-28262714D01*
X73450187Y-28262714D02*
X73307330Y-27977000D01*
X73307330Y-27977000D02*
X73164473Y-27834142D01*
X73164473Y-27834142D02*
X72878758Y-27691285D01*
X72878758Y-27691285D02*
X72307330Y-27548428D01*
X72307330Y-27548428D02*
X72021615Y-27405571D01*
X72021615Y-27405571D02*
X71878758Y-27262714D01*
X71878758Y-27262714D02*
X71735901Y-26977000D01*
X71735901Y-26977000D02*
X71735901Y-26691285D01*
X71735901Y-26691285D02*
X71878758Y-26405571D01*
X71878758Y-26405571D02*
X72021615Y-26262714D01*
X72021615Y-26262714D02*
X72307330Y-26119857D01*
X72307330Y-26119857D02*
X73021615Y-26119857D01*
X73021615Y-26119857D02*
X73450187Y-26262714D01*
X74307330Y-26119857D02*
X76021616Y-26119857D01*
X75164473Y-29119857D02*
X75164473Y-26119857D01*
X76878758Y-28262714D02*
X78307330Y-28262714D01*
X76593044Y-29119857D02*
X77593044Y-26119857D01*
X77593044Y-26119857D02*
X78593044Y-29119857D01*
X81307330Y-29119857D02*
X80307330Y-27691285D01*
X79593044Y-29119857D02*
X79593044Y-26119857D01*
X79593044Y-26119857D02*
X80735901Y-26119857D01*
X80735901Y-26119857D02*
X81021616Y-26262714D01*
X81021616Y-26262714D02*
X81164473Y-26405571D01*
X81164473Y-26405571D02*
X81307330Y-26691285D01*
X81307330Y-26691285D02*
X81307330Y-27119857D01*
X81307330Y-27119857D02*
X81164473Y-27405571D01*
X81164473Y-27405571D02*
X81021616Y-27548428D01*
X81021616Y-27548428D02*
X80735901Y-27691285D01*
X80735901Y-27691285D02*
X79593044Y-27691285D01*
X82164473Y-26119857D02*
X83878759Y-26119857D01*
X83021616Y-29119857D02*
X83021616Y-26119857D01*
X37093044Y-28834142D02*
X36950187Y-28977000D01*
X36950187Y-28977000D02*
X36521615Y-29119857D01*
X36521615Y-29119857D02*
X36235901Y-29119857D01*
X36235901Y-29119857D02*
X35807330Y-28977000D01*
X35807330Y-28977000D02*
X35521615Y-28691285D01*
X35521615Y-28691285D02*
X35378758Y-28405571D01*
X35378758Y-28405571D02*
X35235901Y-27834142D01*
X35235901Y-27834142D02*
X35235901Y-27405571D01*
X35235901Y-27405571D02*
X35378758Y-26834142D01*
X35378758Y-26834142D02*
X35521615Y-26548428D01*
X35521615Y-26548428D02*
X35807330Y-26262714D01*
X35807330Y-26262714D02*
X36235901Y-26119857D01*
X36235901Y-26119857D02*
X36521615Y-26119857D01*
X36521615Y-26119857D02*
X36950187Y-26262714D01*
X36950187Y-26262714D02*
X37093044Y-26405571D01*
X38235901Y-28262714D02*
X39664473Y-28262714D01*
X37950187Y-29119857D02*
X38950187Y-26119857D01*
X38950187Y-26119857D02*
X39950187Y-29119857D01*
X40950187Y-29119857D02*
X40950187Y-26119857D01*
X40950187Y-26119857D02*
X42093044Y-26119857D01*
X42093044Y-26119857D02*
X42378759Y-26262714D01*
X42378759Y-26262714D02*
X42521616Y-26405571D01*
X42521616Y-26405571D02*
X42664473Y-26691285D01*
X42664473Y-26691285D02*
X42664473Y-27119857D01*
X42664473Y-27119857D02*
X42521616Y-27405571D01*
X42521616Y-27405571D02*
X42378759Y-27548428D01*
X42378759Y-27548428D02*
X42093044Y-27691285D01*
X42093044Y-27691285D02*
X40950187Y-27691285D01*
X181589473Y-57691285D02*
X181589473Y-59119857D01*
X180589473Y-56119857D02*
X181589473Y-57691285D01*
X181589473Y-57691285D02*
X182589473Y-56119857D01*
X173688282Y-129181047D02*
X172854949Y-127990571D01*
X172259711Y-129181047D02*
X172259711Y-126681047D01*
X172259711Y-126681047D02*
X173212092Y-126681047D01*
X173212092Y-126681047D02*
X173450187Y-126800095D01*
X173450187Y-126800095D02*
X173569234Y-126919142D01*
X173569234Y-126919142D02*
X173688282Y-127157238D01*
X173688282Y-127157238D02*
X173688282Y-127514380D01*
X173688282Y-127514380D02*
X173569234Y-127752476D01*
X173569234Y-127752476D02*
X173450187Y-127871523D01*
X173450187Y-127871523D02*
X173212092Y-127990571D01*
X173212092Y-127990571D02*
X172259711Y-127990571D01*
X174640663Y-129062000D02*
X174997806Y-129181047D01*
X174997806Y-129181047D02*
X175593044Y-129181047D01*
X175593044Y-129181047D02*
X175831139Y-129062000D01*
X175831139Y-129062000D02*
X175950187Y-128942952D01*
X175950187Y-128942952D02*
X176069234Y-128704857D01*
X176069234Y-128704857D02*
X176069234Y-128466761D01*
X176069234Y-128466761D02*
X175950187Y-128228666D01*
X175950187Y-128228666D02*
X175831139Y-128109619D01*
X175831139Y-128109619D02*
X175593044Y-127990571D01*
X175593044Y-127990571D02*
X175116853Y-127871523D01*
X175116853Y-127871523D02*
X174878758Y-127752476D01*
X174878758Y-127752476D02*
X174759711Y-127633428D01*
X174759711Y-127633428D02*
X174640663Y-127395333D01*
X174640663Y-127395333D02*
X174640663Y-127157238D01*
X174640663Y-127157238D02*
X174759711Y-126919142D01*
X174759711Y-126919142D02*
X174878758Y-126800095D01*
X174878758Y-126800095D02*
X175116853Y-126681047D01*
X175116853Y-126681047D02*
X175712092Y-126681047D01*
X175712092Y-126681047D02*
X176069234Y-126800095D01*
X206807330Y-89119857D02*
X205378758Y-89119857D01*
X205378758Y-89119857D02*
X205378758Y-86119857D01*
X207378758Y-86119857D02*
X209093044Y-86119857D01*
X208235901Y-89119857D02*
X208235901Y-86119857D01*
X54878758Y-27548428D02*
X55307330Y-27691285D01*
X55307330Y-27691285D02*
X55450187Y-27834142D01*
X55450187Y-27834142D02*
X55593044Y-28119857D01*
X55593044Y-28119857D02*
X55593044Y-28548428D01*
X55593044Y-28548428D02*
X55450187Y-28834142D01*
X55450187Y-28834142D02*
X55307330Y-28977000D01*
X55307330Y-28977000D02*
X55021615Y-29119857D01*
X55021615Y-29119857D02*
X53878758Y-29119857D01*
X53878758Y-29119857D02*
X53878758Y-26119857D01*
X53878758Y-26119857D02*
X54878758Y-26119857D01*
X54878758Y-26119857D02*
X55164473Y-26262714D01*
X55164473Y-26262714D02*
X55307330Y-26405571D01*
X55307330Y-26405571D02*
X55450187Y-26691285D01*
X55450187Y-26691285D02*
X55450187Y-26977000D01*
X55450187Y-26977000D02*
X55307330Y-27262714D01*
X55307330Y-27262714D02*
X55164473Y-27405571D01*
X55164473Y-27405571D02*
X54878758Y-27548428D01*
X54878758Y-27548428D02*
X53878758Y-27548428D01*
X56735901Y-28262714D02*
X58164473Y-28262714D01*
X56450187Y-29119857D02*
X57450187Y-26119857D01*
X57450187Y-26119857D02*
X58450187Y-29119857D01*
X61164473Y-28834142D02*
X61021616Y-28977000D01*
X61021616Y-28977000D02*
X60593044Y-29119857D01*
X60593044Y-29119857D02*
X60307330Y-29119857D01*
X60307330Y-29119857D02*
X59878759Y-28977000D01*
X59878759Y-28977000D02*
X59593044Y-28691285D01*
X59593044Y-28691285D02*
X59450187Y-28405571D01*
X59450187Y-28405571D02*
X59307330Y-27834142D01*
X59307330Y-27834142D02*
X59307330Y-27405571D01*
X59307330Y-27405571D02*
X59450187Y-26834142D01*
X59450187Y-26834142D02*
X59593044Y-26548428D01*
X59593044Y-26548428D02*
X59878759Y-26262714D01*
X59878759Y-26262714D02*
X60307330Y-26119857D01*
X60307330Y-26119857D02*
X60593044Y-26119857D01*
X60593044Y-26119857D02*
X61021616Y-26262714D01*
X61021616Y-26262714D02*
X61164473Y-26405571D01*
X62450187Y-29119857D02*
X62450187Y-26119857D01*
X64164473Y-29119857D02*
X62878759Y-27405571D01*
X64164473Y-26119857D02*
X62450187Y-27834142D01*
X150235901Y-99262714D02*
X151664473Y-99262714D01*
X149950187Y-100119857D02*
X150950187Y-97119857D01*
X150950187Y-97119857D02*
X151950187Y-100119857D01*
X236018044Y-65119857D02*
X235018044Y-63691285D01*
X234303758Y-65119857D02*
X234303758Y-62119857D01*
X234303758Y-62119857D02*
X235446615Y-62119857D01*
X235446615Y-62119857D02*
X235732330Y-62262714D01*
X235732330Y-62262714D02*
X235875187Y-62405571D01*
X235875187Y-62405571D02*
X236018044Y-62691285D01*
X236018044Y-62691285D02*
X236018044Y-63119857D01*
X236018044Y-63119857D02*
X235875187Y-63405571D01*
X235875187Y-63405571D02*
X235732330Y-63548428D01*
X235732330Y-63548428D02*
X235446615Y-63691285D01*
X235446615Y-63691285D02*
X234303758Y-63691285D01*
X238303758Y-63548428D02*
X238732330Y-63691285D01*
X238732330Y-63691285D02*
X238875187Y-63834142D01*
X238875187Y-63834142D02*
X239018044Y-64119857D01*
X239018044Y-64119857D02*
X239018044Y-64548428D01*
X239018044Y-64548428D02*
X238875187Y-64834142D01*
X238875187Y-64834142D02*
X238732330Y-64977000D01*
X238732330Y-64977000D02*
X238446615Y-65119857D01*
X238446615Y-65119857D02*
X237303758Y-65119857D01*
X237303758Y-65119857D02*
X237303758Y-62119857D01*
X237303758Y-62119857D02*
X238303758Y-62119857D01*
X238303758Y-62119857D02*
X238589473Y-62262714D01*
X238589473Y-62262714D02*
X238732330Y-62405571D01*
X238732330Y-62405571D02*
X238875187Y-62691285D01*
X238875187Y-62691285D02*
X238875187Y-62977000D01*
X238875187Y-62977000D02*
X238732330Y-63262714D01*
X238732330Y-63262714D02*
X238589473Y-63405571D01*
X238589473Y-63405571D02*
X238303758Y-63548428D01*
X238303758Y-63548428D02*
X237303758Y-63548428D01*
X159093044Y-40619857D02*
X158093044Y-39191285D01*
X157378758Y-40619857D02*
X157378758Y-37619857D01*
X157378758Y-37619857D02*
X158521615Y-37619857D01*
X158521615Y-37619857D02*
X158807330Y-37762714D01*
X158807330Y-37762714D02*
X158950187Y-37905571D01*
X158950187Y-37905571D02*
X159093044Y-38191285D01*
X159093044Y-38191285D02*
X159093044Y-38619857D01*
X159093044Y-38619857D02*
X158950187Y-38905571D01*
X158950187Y-38905571D02*
X158807330Y-39048428D01*
X158807330Y-39048428D02*
X158521615Y-39191285D01*
X158521615Y-39191285D02*
X157378758Y-39191285D01*
X159950187Y-37619857D02*
X161664473Y-37619857D01*
X160807330Y-40619857D02*
X160807330Y-37619857D01*
X147089473Y-134119857D02*
X145660901Y-134119857D01*
X145660901Y-134119857D02*
X145660901Y-131119857D01*
X147946615Y-133977000D02*
X148375187Y-134119857D01*
X148375187Y-134119857D02*
X149089472Y-134119857D01*
X149089472Y-134119857D02*
X149375187Y-133977000D01*
X149375187Y-133977000D02*
X149518044Y-133834142D01*
X149518044Y-133834142D02*
X149660901Y-133548428D01*
X149660901Y-133548428D02*
X149660901Y-133262714D01*
X149660901Y-133262714D02*
X149518044Y-132977000D01*
X149518044Y-132977000D02*
X149375187Y-132834142D01*
X149375187Y-132834142D02*
X149089472Y-132691285D01*
X149089472Y-132691285D02*
X148518044Y-132548428D01*
X148518044Y-132548428D02*
X148232329Y-132405571D01*
X148232329Y-132405571D02*
X148089472Y-132262714D01*
X148089472Y-132262714D02*
X147946615Y-131977000D01*
X147946615Y-131977000D02*
X147946615Y-131691285D01*
X147946615Y-131691285D02*
X148089472Y-131405571D01*
X148089472Y-131405571D02*
X148232329Y-131262714D01*
X148232329Y-131262714D02*
X148518044Y-131119857D01*
X148518044Y-131119857D02*
X149232329Y-131119857D01*
X149232329Y-131119857D02*
X149660901Y-131262714D01*
D11*
%TO.C,R2(RB)1*%
X247500000Y-49500000D02*
G75*
G02*
X225500000Y-49500000I-11000000J0D01*
G01*
X225500000Y-49500000D02*
G75*
G02*
X247500000Y-49500000I11000000J0D01*
G01*
%TO.C,L2(LB)1*%
X220510000Y-44500000D02*
G75*
G02*
X198510000Y-44500000I-11000000J0D01*
G01*
X198510000Y-44500000D02*
G75*
G02*
X220510000Y-44500000I11000000J0D01*
G01*
%TO.C,B4(Y)1*%
X192500000Y-43500000D02*
G75*
G02*
X170500000Y-43500000I-11000000J0D01*
G01*
X170500000Y-43500000D02*
G75*
G02*
X192500000Y-43500000I11000000J0D01*
G01*
%TO.C,R1(R)1*%
X170000000Y-26000000D02*
G75*
G02*
X148000000Y-26000000I-11000000J0D01*
G01*
X148000000Y-26000000D02*
G75*
G02*
X170000000Y-26000000I11000000J0D01*
G01*
%TO.C,B3(X)1*%
X166500000Y-55500000D02*
G75*
G02*
X144500000Y-55500000I-11000000J0D01*
G01*
X144500000Y-55500000D02*
G75*
G02*
X166500000Y-55500000I11000000J0D01*
G01*
%TO.C,L1(L)1*%
X217500000Y-73500000D02*
G75*
G02*
X195500000Y-73500000I-11000000J0D01*
G01*
X195500000Y-73500000D02*
G75*
G02*
X217500000Y-73500000I11000000J0D01*
G01*
%TO.C,B2(B)1*%
X189500000Y-72500000D02*
G75*
G02*
X167500000Y-72500000I-11000000J0D01*
G01*
X167500000Y-72500000D02*
G75*
G02*
X189500000Y-72500000I11000000J0D01*
G01*
%TO.C,B1(A)1*%
X162500000Y-84500000D02*
G75*
G02*
X140500000Y-84500000I-11000000J0D01*
G01*
X140500000Y-84500000D02*
G75*
G02*
X162500000Y-84500000I11000000J0D01*
G01*
%TO.C,R3(RS)1*%
X184000000Y-114000000D02*
G75*
G02*
X162000000Y-114000000I-11000000J0D01*
G01*
X162000000Y-114000000D02*
G75*
G02*
X184000000Y-114000000I11000000J0D01*
G01*
%TO.C,LEFT1*%
X51500000Y-52500000D02*
G75*
G02*
X29500000Y-52500000I-11000000J0D01*
G01*
X29500000Y-52500000D02*
G75*
G02*
X51500000Y-52500000I11000000J0D01*
G01*
%TO.C,DOWN1*%
X81500000Y-52500000D02*
G75*
G02*
X59500000Y-52500000I-11000000J0D01*
G01*
X59500000Y-52500000D02*
G75*
G02*
X81500000Y-52500000I11000000J0D01*
G01*
%TO.C,A1(GUIDE)1*%
X94500000Y-114000000D02*
G75*
G02*
X72500000Y-114000000I-11000000J0D01*
G01*
X72500000Y-114000000D02*
G75*
G02*
X94500000Y-114000000I11000000J0D01*
G01*
%TO.C,RIGHT1*%
X107500000Y-67500000D02*
G75*
G02*
X85500000Y-67500000I-11000000J0D01*
G01*
X85500000Y-67500000D02*
G75*
G02*
X107500000Y-67500000I11000000J0D01*
G01*
%TO.C,UP1*%
X125000000Y-119000000D02*
G75*
G02*
X98000000Y-119000000I-13500000J0D01*
G01*
X98000000Y-119000000D02*
G75*
G02*
X125000000Y-119000000I13500000J0D01*
G01*
%TO.C,L3(LS)1*%
X158500000Y-118500000D02*
G75*
G02*
X136500000Y-118500000I-11000000J0D01*
G01*
X136500000Y-118500000D02*
G75*
G02*
X158500000Y-118500000I11000000J0D01*
G01*
%TD*%
M02*
