M48
; DRILL file {KiCad 8.0.4} date 2024-09-01T11:28:27+0900
; FORMAT={-:-/ absolute / inch / decimal}
; #@! TF.CreationDate,2024-09-01T11:28:27+09:00
; #@! TF.GenerationSoftware,Kicad,Pcbnew,8.0.4
; #@! TF.FileFunction,NonPlated,1,2,NPTH
FMAT,2
INCH
; #@! TA.AperFunction,NonPlated,NPTH,ComponentDrill
T1C0.0669
; #@! TA.AperFunction,NonPlated,NPTH,ComponentDrill
T2C0.1969
; #@! TA.AperFunction,NonPlated,NPTH,ComponentDrill
T3C0.2362
%
G90
G05
T1
X1.3189Y-0.6102
X1.378Y-2.0669
X1.752Y-0.6102
X1.811Y-2.0669
X2.0866Y-0.6102
X2.5197Y-0.6102
X2.5591Y-2.0669
X2.8543Y-0.6102
X2.9921Y-2.0669
X3.0709Y-4.4882
X3.2874Y-0.6102
X3.5039Y-4.4882
X3.5827Y-2.6575
X4.0157Y-2.6575
X4.1732Y-4.685
X4.6063Y-4.685
X5.5906Y-4.6654
X5.748Y-3.3268
X5.9055Y-2.185
X6.0236Y-4.6654
X6.0433Y-1.0236
X6.1811Y-3.3268
X6.3386Y-2.185
X6.4764Y-1.0236
X6.5945Y-4.4882
X6.811Y-2.8543
X6.9291Y-1.7126
X7.0276Y-4.4882
X7.2441Y-2.8543
X7.3622Y-1.7126
X7.9134Y-2.8937
X8.0319Y-1.752
X8.3465Y-2.8937
X8.465Y-1.752
X9.0945Y-1.9488
X9.5276Y-1.9488
T2
X1.5354Y-0.6102
X1.5945Y-2.0669
X2.3031Y-0.6102
X2.7756Y-2.0669
X3.0709Y-0.6102
X3.2874Y-4.4882
X3.7992Y-2.6575
X4.3898Y-4.685
X5.8071Y-4.6654
X5.9646Y-3.3268
X6.122Y-2.185
X6.2598Y-1.0236
X6.811Y-4.4882
X7.0276Y-2.8543
X7.1457Y-1.7126
X8.1299Y-2.8937
X8.2484Y-1.752
X9.311Y-1.9488
T3
X0.6388Y-0.6388
X0.6486Y-3.4336
X0.6486Y-6.2805
X5.1772Y-0.6388
X5.1772Y-6.2904
X9.7156Y-0.6388
X9.7156Y-3.4646
X9.7156Y-6.2904
M30
